<?xml version="1.0" encoding="UTF-8"?>
<svg version="1.1" xmlns="http://www.w3.org/2000/svg" width="705" height="749">
<path d="M0 0 C6.30786706 4.14178192 11.39126527 9.23445861 16.5 14.75 C17.22703125 15.51699219 17.9540625 16.28398438 18.703125 17.07421875 C24 22.73948543 24 22.73948543 24 25 C24.66 25 25.32 25 26 25 C27.33984375 26.328125 27.33984375 26.328125 28.9375 28.25 C31.20679462 30.93276779 33.50670994 33.56655115 35.90625 36.1328125 C36.65660522 36.9367041 36.65660522 36.9367041 37.42211914 37.75683594 C38.4256602 38.82844383 39.4326231 39.8968583 40.44311523 40.96191406 C44 44.77930131 44 44.77930131 44 47 C44.99 47.33 45.98 47.66 47 48 C48.6484375 49.671875 48.6484375 49.671875 50.375 51.75 C53.81250231 55.80263431 57.45148592 59.53518939 61.3125 63.1875 C63 65 63 65 63 67 C63.86625 67.37125 63.86625 67.37125 64.75 67.75 C67.32939979 69.18299988 69.06121592 70.78424676 71 73 C71 73.66 71 74.32 71 75 C71.99 75.33 72.98 75.66 74 76 C75.24682063 77.44368704 76.48891254 78.8925612 77.6796875 80.3828125 C80.27043027 83.55608915 83.12151273 86.3295755 86.375 88.8125 C89.33078145 91.27565121 91.67706134 93.99621522 94.171875 96.9140625 C96.96295481 100.09875612 99.97854389 103.0363708 103 106 C103.9075 106.928125 104.815 107.85625 105.75 108.8125 C107.99568449 111.12877476 107.99568449 111.12877476 111 113 C111 113.66 111 114.32 111 115 C111.53238281 115.20238281 112.06476563 115.40476562 112.61328125 115.61328125 C116.0331281 117.60026265 118.46648636 120.34466775 121.1875 123.1875 C125.68690073 127.81041619 130.20918894 131.98676774 135.48828125 135.73046875 C135.98714844 136.14941406 136.48601562 136.56835938 137 137 C137 137.66 137 138.32 137 139 C137.66 139 138.32 139 139 139 C139 139.66 139 140.32 139 141 C139.598125 141.28875 140.19625 141.5775 140.8125 141.875 C143 143 143 143 146 145 C146 145.66 146 146.32 146 147 C146.86431641 147.40025391 146.86431641 147.40025391 147.74609375 147.80859375 C150.07768029 149.04106151 151.99484119 150.42769687 154.0625 152.0625 C154.85011719 152.68382812 155.63773438 153.30515625 156.44921875 153.9453125 C159.10928375 156.08802948 161.74266469 158.2608336 164.375 160.4375 C174.10033934 168.60490225 174.10033934 168.60490225 185 175 C185 175.66 185 176.32 185 177 C186.98 177.66 188.96 178.32 191 179 C191 179.66 191 180.32 191 181 C191.73178467 181.27312012 192.46356934 181.54624023 193.2175293 181.82763672 C195.86550193 182.94333072 198.10676877 184.20688019 200.51953125 185.7578125 C201.36878174 186.29704346 202.21803223 186.83627441 203.09301758 187.3918457 C204.43916138 188.24975708 204.43916138 188.24975708 205.8125 189.125 C214.04201351 194.29408554 222.32995758 198.92316534 231.10253906 203.08935547 C233.66557381 204.31942747 236.1997147 205.60376927 238.73583984 206.88818359 C257.65196349 216.58891393 257.65196349 216.58891393 277.25 224.75 C284.06891424 227.27061032 289.58589103 230.40924891 294.5625 235.75 C296.81508375 240.84279804 296.99894455 245.70972639 295.375 251.05859375 C293.3372956 255.28864976 290.53930069 257.45087161 286.26171875 259.27734375 C276.07871656 262.53098003 267.60240593 259.87440907 258 256 C258.00056958 257.28488199 258.00056958 257.28488199 258.00115067 258.59572119 C258.02350459 309.30806436 258.04067432 360.02040702 258.05106533 410.73275414 C258.05231611 416.81508154 258.05361043 422.89740894 258.05493164 428.97973633 C258.05519395 430.190673 258.05545626 431.40160967 258.05572652 432.6492414 C258.06008373 452.28417496 258.06797156 471.91910561 258.0771528 491.55403744 C258.08648791 511.685213 258.09205531 531.81638703 258.09408849 551.94756466 C258.09546402 564.38029239 258.09981619 576.81301189 258.10791647 589.24573708 C258.11318218 597.75891367 258.1148047 606.27208597 258.11350138 614.78526407 C258.11285772 619.70476592 258.1138786 624.62425335 258.11920547 629.54375267 C258.12403851 634.03972354 258.12433929 638.53567015 258.12089889 643.03164209 C258.12047311 644.66556612 258.12176965 646.2994916 258.12488318 647.93341272 C258.12884567 650.13961132 258.12676434 652.34572012 258.12304783 654.55191708 C258.12361741 656.3967883 258.12361741 656.3967883 258.1241985 658.27892965 C258 661 258 661 257 662 C254.09939476 662.09997373 251.22253775 662.13359217 248.32142639 662.12584114 C247.39534336 662.12729458 246.46926034 662.12874802 245.51511419 662.13024551 C242.37081863 662.13393328 239.2265707 662.13040632 236.08227539 662.12698364 C233.82173417 662.12813437 231.56119314 662.12972156 229.3006525 662.13171089 C223.05677499 662.13591091 216.81291264 662.1338105 210.56903505 662.13072467 C204.5370181 662.12870436 198.50500441 662.131354 192.4729881 662.13387203 C179.36703997 662.13914901 166.26109671 662.13867693 153.15514812 662.13579312 C141.6862054 662.13328178 130.21726447 662.13261889 118.74832153 662.13381577 C117.60906528 662.13393034 117.60906528 662.13393034 116.44679374 662.13404724 C113.36404917 662.13435855 110.2813046 662.13467695 107.19856003 662.135007 C78.25488598 662.13806893 49.31121502 662.13528789 20.36754145 662.1299101 C-5.37118497 662.12516417 -31.10990644 662.12558879 -56.84863281 662.13037109 C-85.73793012 662.13572078 -114.62722468 662.13785182 -143.51652241 662.13475883 C-146.59378878 662.13443809 -149.67105516 662.13412525 -152.74832153 662.13381577 C-153.50607407 662.13373669 -154.26382661 662.13365761 -155.04454135 662.13357614 C-166.50885148 662.13243662 -177.97315963 662.13377274 -189.43746948 662.13629532 C-202.46733424 662.13914801 -215.49719336 662.13845382 -228.52705741 662.13301457 C-235.18221637 662.13032839 -241.83736749 662.12937463 -248.49252701 662.13266373 C-254.57426975 662.1356241 -260.65599301 662.13403825 -266.73773396 662.12868617 C-268.94833962 662.12756087 -271.1589469 662.12815564 -273.36955154 662.13056196 C-276.35353389 662.13356319 -279.33744774 662.13052435 -282.32142639 662.12584114 C-283.63582905 662.12935289 -283.63582905 662.12935289 -284.9767853 662.13293558 C-290.88584966 662.11415034 -290.88584966 662.11415034 -292 661 C-292.09801279 658.85769347 -292.12371157 656.71208179 -292.12304783 654.56753445 C-292.12420167 653.88427763 -292.12535552 653.20102082 -292.12654433 652.49705926 C-292.12921759 650.17879683 -292.12468305 647.86060213 -292.12025452 645.54234314 C-292.12069007 643.87506057 -292.12156469 642.20777807 -292.12284368 640.54049593 C-292.12509169 635.93651081 -292.12106321 631.33254871 -292.11606562 626.72856653 C-292.11176566 621.77216424 -292.11320722 616.81576336 -292.1139679 611.85935974 C-292.11449342 603.26460904 -292.11134365 594.66986591 -292.10573006 586.07511711 C-292.0976189 573.64840037 -292.09500023 561.2216873 -292.09374207 548.7949682 C-292.09155094 528.63568961 -292.08488921 508.47641506 -292.07543945 488.31713867 C-292.0662669 468.72892273 -292.0591853 449.14070789 -292.05493164 429.55249023 C-292.05466892 428.34600674 -292.05440619 427.13952325 -292.05413551 425.89647966 C-292.05283052 419.84418551 -292.0515668 413.79189136 -292.05032361 407.7395972 C-292.0399491 357.49306201 -292.02232914 307.2465312 -292 257 C-292.89316422 257.28299454 -293.78632843 257.56598907 -294.70655823 257.8575592 C-295.87790817 258.22433273 -297.04925812 258.59110626 -298.25610352 258.96899414 C-299.41739273 259.33448868 -300.57868195 259.69998322 -301.77516174 260.07655334 C-308.34267531 261.95718982 -314.91467304 261.95364652 -321.4375 259.9375 C-326.04673246 256.45247058 -330.00839383 252.90070303 -331.0625 247 C-331.35058439 241.48371738 -329.24440405 237.48637151 -325.75 233.3125 C-320.90133411 229.23521277 -316.12343002 227.00274681 -310.23046875 224.84375 C-302.36425356 221.84542178 -294.86234995 218.21123829 -287.3125 214.5 C-285.96312526 213.84196656 -284.61351653 213.18441271 -283.26367188 212.52734375 C-279.50406348 210.69507622 -275.75184053 208.84811811 -272 207 C-271.08694092 206.55551514 -270.17388184 206.11103027 -269.2331543 205.65307617 C-261.67917568 201.94415767 -254.41973684 197.74596866 -247.12695312 193.55273438 C-245.66225586 192.71645508 -245.66225586 192.71645508 -244.16796875 191.86328125 C-243.29422607 191.36094971 -242.4204834 190.85861816 -241.52026367 190.34106445 C-239.06305152 189.03355052 -236.6024402 187.98149673 -234 187 C-234 186.34 -234 185.68 -234 185 C-233.44675049 184.70577148 -232.89350098 184.41154297 -232.32348633 184.10839844 C-226.84899454 181.14055908 -221.73937648 177.88493724 -216.6875 174.25 C-215.95764893 173.72921875 -215.22779785 173.2084375 -214.47583008 172.671875 C-202.72575092 164.45214803 -202.72575092 164.45214803 -192 155 C-190.49533462 153.77159226 -188.97334015 152.56420078 -187.4375 151.375 C-182.62383764 147.56802402 -178.09244252 143.51821875 -173.578125 139.36328125 C-171.45329247 137.41551809 -169.30641101 135.50852926 -167.125 133.625 C-163.41569194 130.40152647 -159.79868573 127.08240658 -156.1875 123.75 C-155.62369629 123.23002441 -155.05989258 122.71004883 -154.47900391 122.17431641 C-151.29200432 119.22553466 -151.29200432 119.22553466 -148.23828125 116.140625 C-147 115 -147 115 -145 115 C-144.62875 114.13375 -144.62875 114.13375 -144.25 113.25 C-142.81700012 110.67060021 -141.21575324 108.93878408 -139 107 C-138.34 107 -137.68 107 -137 107 C-136.79375 106.443125 -136.5875 105.88625 -136.375 105.3125 C-134.84491107 102.73916861 -132.99204548 101.26949645 -130.65625 99.4375 C-128.22611659 97.3283276 -126.29200393 94.87083291 -124.296875 92.35546875 C-123.86890625 91.90816406 -123.4409375 91.46085937 -123 91 C-122.34 91 -121.68 91 -121 91 C-120.62875 90.13375 -120.62875 90.13375 -120.25 89.25 C-118.81700012 86.67060021 -117.21575324 84.93878408 -115 83 C-114.34 83 -113.68 83 -113 83 C-112.773125 82.46375 -112.54625 81.9275 -112.3125 81.375 C-109.18287237 75.71186429 -104.73465416 71.80796962 -99.86328125 67.6796875 C-97.62353532 65.66062933 -95.86218438 63.36354172 -94 61 C-93.34 61 -92.68 61 -92 61 C-92 60.34 -92 59.68 -92 59 C-91.34 59 -90.68 59 -90 59 C-89.67 58.01 -89.34 57.02 -89 56 C-88.34 56 -87.68 56 -87 56 C-86.74605469 55.41734375 -86.49210938 54.8346875 -86.23046875 54.234375 C-84.86679667 51.75811967 -83.35774797 50.19479374 -81.3125 48.25 C-78.04781407 45.06707723 -75.01800359 41.78699042 -72.046875 38.33203125 C-69.41833635 35.33730306 -66.71082624 32.42015323 -64 29.5 C-60.63614849 25.87543312 -57.2991746 22.23952776 -54.0625 18.5 C-51.49389258 15.53335172 -48.81315639 12.73912596 -46 10 C-44.8553125 8.7934375 -44.8553125 8.7934375 -43.6875 7.5625 C-30.56893 -4.94590396 -16.52704211 -9.19356806 0 0 Z M-18 76 C-19.22857138 77.48721799 -20.45501739 78.97661718 -21.6484375 80.4921875 C-23 82 -23 82 -26 84 C-26 84.66 -26 85.32 -26 86 C-26.66 86 -27.32 86 -28 86 C-29.60059293 87.62092592 -29.60059293 87.62092592 -31.25 89.6875 C-33.50075728 92.35349133 -35.70049545 94.71010091 -38.4375 96.875 C-39.283125 97.57625 -40.12875 98.2775 -41 99 C-41 99.66 -41 100.32 -41 101 C-41.5775 101.2475 -42.155 101.495 -42.75 101.75 C-45.32939979 103.18299988 -47.06121592 104.78424676 -49 107 C-49 107.66 -49 108.32 -49 109 C-49.55429687 109.23589844 -50.10859375 109.47179687 -50.6796875 109.71484375 C-53.56447242 111.3126455 -55.71172032 113.31851009 -58.125 115.5625 C-62.80555556 119.90277778 -62.80555556 119.90277778 -65 121 C-65 121.66 -65 122.32 -65 123 C-65.66 123 -66.32 123 -67 123 C-67 123.66 -67 124.32 -67 125 C-67.56589844 125.24621094 -68.13179687 125.49242187 -68.71484375 125.74609375 C-71.39248258 127.21536224 -73.33043612 128.97752435 -75.5625 131.0625 C-80.87700383 135.9276726 -86.38615461 140.48606834 -92 145 C-93.27351001 146.03116045 -94.54694326 147.06241571 -95.8203125 148.09375 C-97.15075493 149.16702221 -98.48148203 150.23994164 -99.8125 151.3125 C-100.43471436 151.81628174 -101.05692871 152.32006348 -101.69799805 152.83911133 C-104.54104145 155.12048123 -107.36958418 157.27693554 -110.44921875 159.23046875 C-111.29097656 159.81441406 -112.13273438 160.39835937 -113 161 C-113 161.66 -113 162.32 -113 163 C-113.73863281 163.26425781 -114.47726562 163.52851563 -115.23828125 163.80078125 C-117.98749716 164.9945709 -119.8797533 166.29540749 -122.1875 168.1875 C-126.983882 172.01674268 -131.94812113 175.51783654 -137 179 C-138.11635327 179.78579409 -139.23220832 180.5722963 -140.34765625 181.359375 C-156.72078672 192.84555518 -173.7245711 203.4298379 -191.26757812 213.03222656 C-192.92061647 213.95565441 -194.54717363 214.92601772 -196.171875 215.8984375 C-209.83527847 224.06315421 -224.54027458 230.49120224 -239.22042847 236.59638977 C-240.30235411 237.046536 -241.38427975 237.49668222 -242.49899101 237.96046925 C-243.73699046 238.47503697 -243.73699046 238.47503697 -245 239 C-245.02286423 286.88315483 -245.04049713 334.76630909 -245.05106533 382.6494683 C-245.05231611 388.29617874 -245.05361043 393.94288918 -245.05493164 399.58959961 C-245.05519395 400.71380845 -245.05545626 401.8380173 -245.05572652 402.99629308 C-245.06008369 421.22475726 -245.06797149 439.4532183 -245.0771528 457.68168061 C-245.08648804 476.37096033 -245.09205534 495.0602384 -245.09408849 513.74952036 C-245.09546399 525.29167387 -245.09981601 536.83381852 -245.10791647 548.3759693 C-245.11318234 556.27942724 -245.11480466 564.18288056 -245.11350138 572.08634012 C-245.11285775 576.65344605 -245.11387831 581.22053642 -245.11920547 585.78763962 C-245.12403886 589.9616375 -245.12433906 594.13560925 -245.12089889 598.30960829 C-245.12047314 599.82644026 -245.12176939 601.34327381 -245.12488318 602.86010265 C-245.12884624 604.9083383 -245.12615676 606.9565837 -245.12304783 609.00482082 C-245.12342755 610.14663986 -245.12380727 611.28845889 -245.1241985 612.4648785 C-245.28759177 614.93629465 -245.28759177 614.93629465 -244 616 C-241.58714499 616.09968309 -239.20287492 616.13362959 -236.78945923 616.12584114 C-236.02208333 616.12729458 -235.25470743 616.12874802 -234.46407771 616.13024551 C-231.85965882 616.13393213 -229.25529749 616.13040686 -226.65087891 616.12698364 C-224.77806887 616.12813441 -222.90525906 616.12972163 -221.03244972 616.13171089 C-215.86031911 616.13591029 -210.68820679 616.13381078 -205.51607609 616.13072467 C-199.94819574 616.12847326 -194.38031867 616.13194888 -188.81243896 616.13470459 C-177.89477654 616.13916407 -166.97712096 616.13818503 -156.05945826 616.13529195 C-147.19078165 616.13303861 -138.32210698 616.13272509 -129.45343018 616.13381577 C-128.19384039 616.133969 -126.9342506 616.13412223 -125.63649142 616.13428011 C-123.07810068 616.13459982 -120.51970994 616.13492403 -117.96131921 616.1352527 C-94.62570383 616.13802653 -71.29009247 616.13514417 -47.95447794 616.1299101 C-26.63306141 616.12516418 -5.31165085 616.1255888 16.00976562 616.13037109 C39.94171798 616.13572092 63.87366704 616.13783332 87.80562019 616.13475883 C90.35489019 616.13444026 92.90416018 616.13412589 95.45343018 616.13381577 C96.70790054 616.13366149 97.9623709 616.13350721 99.25485551 616.13334826 C108.11853323 616.13248284 116.98220884 616.13394652 125.84588623 616.13629532 C136.63962587 616.13909254 147.43335823 616.13835671 158.22709703 616.13301457 C163.74000735 616.1303765 169.2529055 616.12937428 174.76581573 616.13266373 C179.80392144 616.13562453 184.84200362 616.13403753 189.88010716 616.12868617 C191.7111729 616.12756106 193.54224058 616.12815524 195.37330508 616.13056196 C197.84538549 616.13356415 200.31738328 616.13052335 202.78945923 616.12584114 C203.5149192 616.12818231 204.24037917 616.13052347 204.98782277 616.13293558 C208.27594257 616.40432233 208.27594257 616.40432233 211 615 C211.10322222 613.01267028 211.1347781 611.02161369 211.1398077 609.03161144 C211.14549894 607.72581385 211.15119018 606.42001625 211.15705389 605.07464904 C211.15834673 603.60650337 211.15953471 602.13835762 211.16062927 600.67021179 C211.16535641 599.12539806 211.1705068 597.58058556 211.17604691 596.03577453 C211.18999967 591.77016899 211.19754973 587.50457201 211.2040199 583.23894942 C211.21037716 579.58536632 211.22044914 575.93179741 211.23058056 572.27822312 C211.26395351 560.23842027 211.2854344 548.1986088 211.30378041 536.15877482 C211.30857249 533.02562155 211.31355615 529.89246863 211.31858563 526.75931573 C211.34955255 507.32066129 211.37625006 487.88200392 211.39300442 468.44333172 C211.3969542 463.93788841 211.40095715 459.43244515 211.4050293 454.92700195 C211.40654184 453.24720326 211.40654184 453.24720326 211.40808494 451.53346924 C211.42510161 433.38139452 211.46621987 415.2294559 211.51705229 397.07744768 C211.56876301 378.45931277 211.597938 359.84124797 211.6052013 341.22304183 C211.60987174 330.7622053 211.6247083 320.30159166 211.6649456 309.84082603 C211.69916288 300.93409053 211.71321876 292.02761809 211.70052146 283.1208206 C211.69467506 278.57338143 211.6986966 274.02649917 211.7286911 269.47914314 C211.75590509 265.31952767 211.75566875 261.16086867 211.73318065 257.00123332 C211.72993828 255.49311263 211.73693856 253.98492958 211.75497787 252.4769133 C211.77794953 250.43337005 211.76062433 248.38949088 211.74108028 246.34591198 C211.74281653 245.20881194 211.74455278 244.07171191 211.74634165 242.90015429 C211.23474792 239.71012619 211.23474792 239.71012619 208.08939415 237.66972572 C205.67909993 236.36703333 203.36183619 235.15031372 200.8203125 234.140625 C199.68734741 233.68079224 199.68734741 233.68079224 198.53149414 233.21166992 C197.73735107 232.89431885 196.94320801 232.57696777 196.125 232.25 C174.44495145 223.32929216 154.01093521 211.73307881 134.14501953 199.33642578 C132.02731824 198.01702026 129.90320671 196.70854919 127.77734375 195.40234375 C119.94836767 190.57588154 112.28901515 185.57066218 104.77929688 180.25537109 C102.7806581 178.84524478 100.77340027 177.4478657 98.765625 176.05078125 C91.66919484 171.09662545 84.67192398 166.14476972 78.078125 160.5234375 C75.81652173 158.86549526 73.63545631 157.9307031 71 157 C71 156.34 71 155.68 71 155 C69.1762979 153.4979541 67.28886233 152.07283831 65.375 150.6875 C61.95818681 148.19576068 58.56795558 145.71537136 55.375 142.9375 C53.25255332 140.78929109 53.25255332 140.78929109 51 141 C51 140.34 51 139.68 51 139 C47.94441577 135.97482091 47.94441577 135.97482091 44 135 C44 134.34 44 133.68 44 133 C42.25806821 131.43780497 42.25806821 131.43780497 39.9375 129.75 C34.28540698 125.37104702 29.14595134 120.5363028 24.00366211 115.57324219 C23.38370361 114.98188477 22.76374512 114.39052734 22.125 113.78125 C21.57070313 113.24564453 21.01640625 112.71003906 20.4453125 112.15820312 C19.04856926 110.79155405 19.04856926 110.79155405 17 111 C17 110.34 17 109.68 17 109 C16.34 109 15.68 109 15 109 C14.74033447 108.4026001 14.48066895 107.8052002 14.21313477 107.18969727 C12.90450177 104.82762656 11.67561927 103.65784867 9.58984375 101.96484375 C6.04385166 98.96377248 2.71107445 95.80067134 -0.55859375 92.50390625 C-1.03761139 92.02158539 -1.51662903 91.53926453 -2.01016235 91.04232788 C-3.48793384 89.55100649 -4.9631228 88.05717677 -6.4375 86.5625 C-8.41251811 84.56095887 -10.39079955 82.56272573 -12.37109375 80.56640625 C-13.23661865 79.68927979 -14.10214355 78.81215332 -14.99389648 77.90844727 C-16.65927582 75.88512464 -16.65927582 75.88512464 -18 76 Z " fill="#03ADEF" transform="translate(372,31)"/>
<path d="M0 0 C2.20308031 1.569391 2.20308031 1.569391 5.171875 2.41796875 C6.50520833 4.08463542 7.83854167 5.75130208 9.171875 7.41796875 C10.161875 7.74796875 11.151875 8.07796875 12.171875 8.41796875 C13.48828125 9.9765625 13.48828125 9.9765625 14.734375 11.85546875 C16.13777396 13.94963729 17.37745512 15.62354887 19.171875 17.41796875 C34.12976449 40.5518331 37.92462972 64.98867642 32.75390625 91.78466797 C29.5933507 106.08406066 23.25678858 118.97750071 16.09228516 131.65063477 C15.03345154 133.57035733 15.03345154 133.57035733 14.171875 136.41796875 C13.511875 136.41796875 12.851875 136.41796875 12.171875 136.41796875 C11.89802979 137.15515137 11.62418457 137.89233398 11.34204102 138.65185547 C10.24430571 141.24675242 9.03128257 143.35413801 7.44921875 145.67578125 C6.91530518 146.46065918 6.3813916 147.24553711 5.83129883 148.05419922 C5.26306396 148.87549316 4.6948291 149.69678711 4.109375 150.54296875 C3.52373779 151.39391113 2.93810059 152.24485352 2.3347168 153.12158203 C-1.43932934 158.55359961 -5.35537173 163.73666905 -9.625 168.7890625 C-12.2493402 171.92058902 -14.76668622 175.12356199 -17.265625 178.35546875 C-17.90407349 179.17217041 -17.90407349 179.17217041 -18.55541992 180.00537109 C-20.63128203 182.69840411 -22.4534748 185.30059262 -23.828125 188.41796875 C-24.488125 188.41796875 -25.148125 188.41796875 -25.828125 188.41796875 C-25.828125 189.07796875 -25.828125 189.73796875 -25.828125 190.41796875 C-27.703125 192.54296875 -27.703125 192.54296875 -29.828125 194.41796875 C-30.488125 194.41796875 -31.148125 194.41796875 -31.828125 194.41796875 C-32.08464844 194.99289062 -32.34117187 195.5678125 -32.60546875 196.16015625 C-33.94452679 198.63292158 -35.49963367 200.46643129 -37.390625 202.54296875 C-39.90491716 205.2783492 -39.90491716 205.2783492 -41.828125 208.41796875 C-42.488125 208.41796875 -43.148125 208.41796875 -43.828125 208.41796875 C-43.828125 209.07796875 -43.828125 209.73796875 -43.828125 210.41796875 C-45.703125 212.54296875 -45.703125 212.54296875 -47.828125 214.41796875 C-48.488125 214.41796875 -49.148125 214.41796875 -49.828125 214.41796875 C-49.828125 215.07796875 -49.828125 215.73796875 -49.828125 216.41796875 C-50.488125 216.41796875 -51.148125 216.41796875 -51.828125 216.41796875 C-52.158125 218.39796875 -52.488125 220.37796875 -52.828125 222.41796875 C-54.148125 222.74796875 -55.468125 223.07796875 -56.828125 223.41796875 C-56.68628804 225.16829719 -56.53949071 226.91822409 -56.390625 228.66796875 C-56.26880859 230.12976563 -56.26880859 230.12976563 -56.14453125 231.62109375 C-55.90807084 234.2987251 -55.90807084 234.2987251 -55.3203125 236.375 C-54.64117515 239.19395901 -54.55156408 241.96184973 -54.390625 244.85546875 C-54.01262576 250.51964203 -53.35511774 256.03828731 -52.43359375 261.63671875 C-51.49499112 267.49844357 -50.69431322 273.37969659 -49.88134766 279.26000977 C-49.69838135 280.56216431 -49.69838135 280.56216431 -49.51171875 281.890625 C-49.40400146 282.66672119 -49.29628418 283.44281738 -49.18530273 284.24243164 C-48.86967541 286.43747095 -48.86967541 286.43747095 -48.19555664 288.59155273 C-48.0743042 289.19427002 -47.95305176 289.7969873 -47.828125 290.41796875 C-49.265625 292.16796875 -49.265625 292.16796875 -50.828125 293.41796875 C-51.488125 293.08796875 -52.148125 292.75796875 -52.828125 292.41796875 C-52.828125 293.73796875 -52.828125 295.05796875 -52.828125 296.41796875 C-51.838125 296.41796875 -50.848125 296.41796875 -49.828125 296.41796875 C-49.8796875 297.12824219 -49.93125 297.83851563 -49.984375 298.5703125 C-49.80039899 301.92327528 -48.82607462 303.98873047 -47.328125 306.98046875 C-45.50215836 310.63747416 -44.828125 312.23146129 -44.828125 316.41796875 C-44.168125 316.41796875 -43.508125 316.41796875 -42.828125 316.41796875 C-42.70695313 316.98386719 -42.58578125 317.54976562 -42.4609375 318.1328125 C-42.20957031 319.23302734 -42.20957031 319.23302734 -41.953125 320.35546875 C-41.79070312 321.08636719 -41.62828125 321.81726563 -41.4609375 322.5703125 C-40.99850977 324.62497169 -40.99850977 324.62497169 -38.828125 325.41796875 C-37.9860541 327.51575941 -37.2297564 329.6482484 -36.515625 331.79296875 C-34.59476671 337.42879014 -32.39585233 342.82406329 -29.84375 348.2109375 C-28.828125 350.41796875 -28.828125 350.41796875 -27.828125 353.41796875 C-27.168125 354.07796875 -26.508125 354.73796875 -25.828125 355.41796875 C-24.91549467 357.47636239 -24.06989288 359.56486826 -23.265625 361.66796875 C-22.61400391 363.34632813 -22.61400391 363.34632813 -21.94921875 365.05859375 C-20.90206713 368.1964 -20.2693343 371.14607959 -19.828125 374.41796875 C-20.818125 374.41796875 -21.808125 374.41796875 -22.828125 374.41796875 C-22.828125 373.09796875 -22.828125 371.77796875 -22.828125 370.41796875 C-23.42625 370.39734375 -24.024375 370.37671875 -24.640625 370.35546875 C-26.828125 369.41796875 -26.828125 369.41796875 -28.140625 366.48046875 C-28.37007812 365.85914063 -28.59953125 365.2378125 -28.8359375 364.59765625 C-30.5122454 360.91505858 -33.00450014 357.79649263 -35.40234375 354.5546875 C-36.828125 352.41796875 -36.828125 352.41796875 -36.828125 350.41796875 C-37.488125 350.41796875 -38.148125 350.41796875 -38.828125 350.41796875 C-40.5546875 348.30078125 -40.5546875 348.30078125 -42.453125 345.54296875 C-43.08476562 344.63804687 -43.71640625 343.733125 -44.3671875 342.80078125 C-45.828125 340.41796875 -45.828125 340.41796875 -45.828125 338.41796875 C-46.488125 338.41796875 -47.148125 338.41796875 -47.828125 338.41796875 C-49.1171875 336.73828125 -49.1171875 336.73828125 -50.453125 334.54296875 C-50.89914062 333.82367187 -51.34515625 333.104375 -51.8046875 332.36328125 C-52.828125 330.41796875 -52.828125 330.41796875 -52.828125 328.41796875 C-53.818125 328.08796875 -54.808125 327.75796875 -55.828125 327.41796875 C-58.828125 323.08463542 -58.828125 323.08463542 -58.828125 320.41796875 C-59.488125 320.41796875 -60.148125 320.41796875 -60.828125 320.41796875 C-61.158125 319.09796875 -61.488125 317.77796875 -61.828125 316.41796875 C-62.818125 316.41796875 -63.808125 316.41796875 -64.828125 316.41796875 C-65.158125 314.43796875 -65.488125 312.45796875 -65.828125 310.41796875 C-66.488125 310.41796875 -67.148125 310.41796875 -67.828125 310.41796875 C-69.1171875 308.73828125 -69.1171875 308.73828125 -70.453125 306.54296875 C-70.89914062 305.82367187 -71.34515625 305.104375 -71.8046875 304.36328125 C-72.828125 302.41796875 -72.828125 302.41796875 -72.828125 300.41796875 C-73.488125 300.41796875 -74.148125 300.41796875 -74.828125 300.41796875 C-75.158125 301.73796875 -75.488125 303.05796875 -75.828125 304.41796875 C-76.488125 304.41796875 -77.148125 304.41796875 -77.828125 304.41796875 C-78.488125 306.39796875 -79.148125 308.37796875 -79.828125 310.41796875 C-80.488125 310.41796875 -81.148125 310.41796875 -81.828125 310.41796875 C-81.828125 311.07796875 -81.828125 311.73796875 -81.828125 312.41796875 C-82.488125 312.41796875 -83.148125 312.41796875 -83.828125 312.41796875 C-83.828125 313.73796875 -83.828125 315.05796875 -83.828125 316.41796875 C-84.488125 316.74796875 -85.148125 317.07796875 -85.828125 317.41796875 C-86.158125 318.40796875 -86.488125 319.39796875 -86.828125 320.41796875 C-87.488125 320.41796875 -88.148125 320.41796875 -88.828125 320.41796875 C-88.828125 321.07796875 -88.828125 321.73796875 -88.828125 322.41796875 C-89.488125 322.41796875 -90.148125 322.41796875 -90.828125 322.41796875 C-91.488125 324.39796875 -92.148125 326.37796875 -92.828125 328.41796875 C-93.488125 328.41796875 -94.148125 328.41796875 -94.828125 328.41796875 C-95.116875 328.99546875 -95.405625 329.57296875 -95.703125 330.16796875 C-96.74479167 332.25130208 -97.78645833 334.33463542 -98.828125 336.41796875 C-99.488125 336.41796875 -100.148125 336.41796875 -100.828125 336.41796875 C-101.488125 338.39796875 -102.148125 340.37796875 -102.828125 342.41796875 C-103.488125 342.41796875 -104.148125 342.41796875 -104.828125 342.41796875 C-104.89 343.32546875 -104.951875 344.23296875 -105.015625 345.16796875 C-106.05297846 349.31738259 -107.48896921 349.8047164 -110.828125 352.41796875 C-114.26203173 356.81927716 -117.44953132 361.35613393 -119.828125 366.41796875 C-120.488125 366.41796875 -121.148125 366.41796875 -121.828125 366.41796875 C-122.158125 367.73796875 -122.488125 369.05796875 -122.828125 370.41796875 C-123.488125 370.41796875 -124.148125 370.41796875 -124.828125 370.41796875 C-125.488125 371.73796875 -126.148125 373.05796875 -126.828125 374.41796875 C-127.818125 373.09796875 -128.808125 371.77796875 -129.828125 370.41796875 C-129.498125 369.75796875 -129.168125 369.09796875 -128.828125 368.41796875 C-127.838125 368.41796875 -126.848125 368.41796875 -125.828125 368.41796875 C-125.498125 366.43796875 -125.168125 364.45796875 -124.828125 362.41796875 C-124.168125 362.41796875 -123.508125 362.41796875 -122.828125 362.41796875 C-122.70139404 361.68690918 -122.57466309 360.95584961 -122.4440918 360.20263672 C-121.85800148 357.55303458 -121.06294598 355.34085341 -119.97265625 352.86328125 C-119.4144519 351.58155029 -119.4144519 351.58155029 -118.8449707 350.27392578 C-118.44753662 349.37270996 -118.05010254 348.47149414 -117.640625 347.54296875 C-116.81633287 345.64773305 -115.99342198 343.75189603 -115.171875 341.85546875 C-114.7696875 340.92734375 -114.3675 339.99921875 -113.953125 339.04296875 C-111.45628172 333.2170011 -109.14965336 327.31555612 -106.828125 321.41796875 C-101.19261491 307.1628118 -101.19261491 307.1628118 -98.578125 301.04296875 C-98.28421875 300.35460937 -97.9903125 299.66625 -97.6875 298.95703125 C-96.828125 297.41796875 -96.828125 297.41796875 -94.828125 296.41796875 C-96.5514257 293.49043761 -96.5514257 293.49043761 -98.515625 292.10546875 C-99.828125 290.41796875 -99.828125 290.41796875 -99.578125 287.60546875 C-99.206875 286.02765625 -99.206875 286.02765625 -98.828125 284.41796875 C-98.0434367 280.02090067 -97.4588 275.61722336 -96.921875 271.18359375 C-95.90933063 262.94109776 -94.79585187 254.71429883 -93.65087891 246.48925781 C-93.32644308 244.15587216 -93.00494401 241.82209361 -92.68359375 239.48828125 C-91.63750232 231.93623523 -90.5438253 224.4099275 -89.17773438 216.90722656 C-88.82237131 214.37700182 -88.76625654 211.96946973 -88.828125 209.41796875 C-89.488125 209.08796875 -90.148125 208.75796875 -90.828125 208.41796875 C-90.828125 207.75796875 -90.828125 207.09796875 -90.828125 206.41796875 C-91.488125 206.41796875 -92.148125 206.41796875 -92.828125 206.41796875 C-92.828125 205.75796875 -92.828125 205.09796875 -92.828125 204.41796875 C-93.818125 204.41796875 -94.808125 204.41796875 -95.828125 204.41796875 C-96.87704738 202.78164983 -97.87719203 201.11311012 -98.828125 199.41796875 C-99.488125 199.08796875 -100.148125 198.75796875 -100.828125 198.41796875 C-100.828125 197.75796875 -100.828125 197.09796875 -100.828125 196.41796875 C-101.488125 196.41796875 -102.148125 196.41796875 -102.828125 196.41796875 C-102.828125 195.75796875 -102.828125 195.09796875 -102.828125 194.41796875 C-103.488125 194.41796875 -104.148125 194.41796875 -104.828125 194.41796875 C-104.828125 193.75796875 -104.828125 193.09796875 -104.828125 192.41796875 C-105.488125 192.41796875 -106.148125 192.41796875 -106.828125 192.41796875 C-106.828125 191.75796875 -106.828125 191.09796875 -106.828125 190.41796875 C-107.818125 190.41796875 -108.808125 190.41796875 -109.828125 190.41796875 C-109.828125 189.75796875 -109.828125 189.09796875 -109.828125 188.41796875 C-110.818125 188.41796875 -111.808125 188.41796875 -112.828125 188.41796875 C-113.158125 187.09796875 -113.488125 185.77796875 -113.828125 184.41796875 C-114.488125 184.41796875 -115.148125 184.41796875 -115.828125 184.41796875 C-115.828125 183.75796875 -115.828125 183.09796875 -115.828125 182.41796875 C-116.488125 182.41796875 -117.148125 182.41796875 -117.828125 182.41796875 C-117.828125 181.75796875 -117.828125 181.09796875 -117.828125 180.41796875 C-118.385 180.17046875 -118.941875 179.92296875 -119.515625 179.66796875 C-122.25223413 178.18872057 -124.50463369 176.48329436 -126.828125 174.41796875 C-126.828125 173.75796875 -126.828125 173.09796875 -126.828125 172.41796875 C-127.818125 172.08796875 -128.808125 171.75796875 -129.828125 171.41796875 C-130.158125 170.75796875 -130.488125 170.09796875 -130.828125 169.41796875 C-132.84482327 168.28446341 -132.84482327 168.28446341 -134.828125 167.41796875 C-134.828125 166.42796875 -134.828125 165.43796875 -134.828125 164.41796875 C-138.73875724 162.94749539 -138.73875724 162.94749539 -142.828125 162.41796875 C-142.828125 163.07796875 -142.828125 163.73796875 -142.828125 164.41796875 C-143.488125 164.41796875 -144.148125 164.41796875 -144.828125 164.41796875 C-144.828125 165.07796875 -144.828125 165.73796875 -144.828125 166.41796875 C-145.488125 166.41796875 -146.148125 166.41796875 -146.828125 166.41796875 C-146.828125 167.07796875 -146.828125 167.73796875 -146.828125 168.41796875 C-147.488125 168.41796875 -148.148125 168.41796875 -148.828125 168.41796875 C-148.828125 169.07796875 -148.828125 169.73796875 -148.828125 170.41796875 C-149.488125 170.41796875 -150.148125 170.41796875 -150.828125 170.41796875 C-150.828125 171.07796875 -150.828125 171.73796875 -150.828125 172.41796875 C-151.488125 172.41796875 -152.148125 172.41796875 -152.828125 172.41796875 C-152.828125 173.07796875 -152.828125 173.73796875 -152.828125 174.41796875 C-154.47265625 176.0390625 -154.47265625 176.0390625 -156.640625 177.85546875 C-159.65275765 180.39136207 -159.65275765 180.39136207 -162.46484375 183.140625 C-163.828125 184.41796875 -163.828125 184.41796875 -165.828125 184.41796875 C-166.488125 185.73796875 -167.148125 187.05796875 -167.828125 188.41796875 C-168.488125 188.41796875 -169.148125 188.41796875 -169.828125 188.41796875 C-170.1375 189.03671875 -170.446875 189.65546875 -170.765625 190.29296875 C-171.453125 191.66796875 -172.140625 193.04296875 -172.828125 194.41796875 C-173.488125 194.41796875 -174.148125 194.41796875 -174.828125 194.41796875 C-174.828125 195.07796875 -174.828125 195.73796875 -174.828125 196.41796875 C-175.818125 196.41796875 -176.808125 196.41796875 -177.828125 196.41796875 C-177.828125 197.07796875 -177.828125 197.73796875 -177.828125 198.41796875 C-178.488125 198.41796875 -179.148125 198.41796875 -179.828125 198.41796875 C-178.7843921 204.43839753 -177.73984089 210.4586836 -176.69442749 216.4788208 C-176.32553954 218.60311289 -175.95674462 220.72742113 -175.58804321 222.85174561 C-173.43451764 235.25579648 -171.25814401 247.65470145 -169.015625 260.04296875 C-167.51565792 268.35422185 -166.13706537 276.66967833 -164.92285156 285.02734375 C-163.94928774 291.71266585 -162.8737844 298.37868511 -161.765625 305.04296875 C-161.52187134 306.51878418 -161.52187134 306.51878418 -161.27319336 308.02441406 C-160.24288592 314.18216407 -159.0782534 320.3014326 -157.828125 326.41796875 C-155.88846999 336.22795166 -154.22350588 346.04004535 -152.83032227 355.94287109 C-152.71358154 356.7570752 -152.59684082 357.5712793 -152.4765625 358.41015625 C-152.37520996 359.1357373 -152.27385742 359.86131836 -152.16943359 360.60888672 C-151.89625278 362.50974654 -151.89625278 362.50974654 -150.828125 364.41796875 C-150.4352196 366.49434472 -150.08749322 368.57940162 -149.765625 370.66796875 C-149.50072266 372.34632813 -149.50072266 372.34632813 -149.23046875 374.05859375 C-148.85197359 377.2188446 -148.75588315 380.23932752 -148.828125 383.41796875 C-152.34384348 380.72125287 -152.81486043 377.47268512 -153.828125 373.29296875 C-155.08055525 368.28384558 -156.43683426 363.36993175 -158.12109375 358.48828125 C-160.16450981 352.50479775 -161.83814458 346.40711861 -163.515625 340.31323242 C-167.15038171 327.11026262 -171.01330349 313.98442823 -175.23583984 300.95678711 C-179.24752061 288.56708899 -182.83769979 276.07150851 -186.36425781 263.53686523 C-186.773861 262.08440847 -187.18368567 260.63201414 -187.59375 259.1796875 C-187.78874084 258.48737534 -187.98373169 257.79506317 -188.18463135 257.08177185 C-189.23355141 253.39091029 -190.36236668 249.74804796 -191.625 246.125 C-192.828125 242.41796875 -192.828125 242.41796875 -192.828125 238.41796875 C-193.488125 238.41796875 -194.148125 238.41796875 -194.828125 238.41796875 C-194.95703125 239.26101563 -195.0859375 240.1040625 -195.21875 240.97265625 C-195.85156524 244.55049628 -196.68137012 248.02210327 -197.578125 251.54296875 C-197.93905606 252.96347716 -198.29972052 254.38405333 -198.66015625 255.8046875 C-198.8504541 256.55282715 -199.04075195 257.3009668 -199.23681641 258.07177734 C-199.8444664 260.48280806 -200.4376551 262.89701705 -201.02734375 265.3125 C-202.91101417 273.00234276 -204.84094283 280.65358087 -207.140625 288.23046875 C-209.48125832 295.96869157 -211.55137673 303.77633641 -213.58602905 311.59945679 C-213.9539894 313.0133292 -214.32362286 314.42676731 -214.69497681 315.8397522 C-215.21978785 317.83978439 -215.73783693 319.84144667 -216.25390625 321.84375 C-216.55723877 323.01333252 -216.86057129 324.18291504 -217.1730957 325.38793945 C-217.96899048 328.55291272 -217.96899048 328.55291272 -217.828125 332.41796875 C-218.488125 332.41796875 -219.148125 332.41796875 -219.828125 332.41796875 C-219.97507813 333.15015625 -220.12203125 333.88234375 -220.2734375 334.63671875 C-223.67457015 351.05597981 -227.54120053 367.49499623 -232.828125 383.41796875 C-233.158125 383.41796875 -233.488125 383.41796875 -233.828125 383.41796875 C-234.22280605 374.22945292 -232.99092488 365.40299424 -231.578125 356.35546875 C-231.34912406 354.84858073 -231.12086216 353.34158022 -230.89331055 351.83447266 C-230.2153714 347.36066604 -229.52310468 342.88915501 -228.828125 338.41796875 C-228.26773544 334.7994926 -227.70743269 331.18100304 -227.1472168 327.5625 C-226.81248997 325.40218112 -226.47673411 323.24202141 -226.13989258 321.08203125 C-225.2524923 315.34876067 -224.44321906 309.6171808 -223.765625 303.85546875 C-223.14748416 298.6500722 -222.34303551 293.50862521 -221.390625 288.35546875 C-219.9970763 280.79323775 -218.98517852 273.20824371 -218.02587891 265.58007812 C-216.78168982 255.80039781 -215.26793785 246.06777899 -213.74609375 236.328125 C-212.71054251 229.69996369 -211.74640905 223.06344542 -210.828125 216.41796875 C-211.818125 216.08796875 -212.808125 215.75796875 -213.828125 215.41796875 C-214.488125 214.90234375 -215.148125 214.38671875 -215.828125 213.85546875 C-217.82363143 212.12615073 -217.82363143 212.12615073 -220.828125 212.41796875 C-220.828125 211.09796875 -220.828125 209.77796875 -220.828125 208.41796875 C-221.488125 208.21171875 -222.148125 208.00546875 -222.828125 207.79296875 C-229.3751993 204.79222636 -234.24922885 200.26264413 -238.8203125 194.77734375 C-240.41295536 192.90583347 -242.0335365 191.10231484 -243.7109375 189.30859375 C-244.46636841 188.49962646 -244.46636841 188.49962646 -245.23706055 187.67431641 C-246.245614 186.59794615 -247.2574356 185.52462763 -248.27270508 184.45458984 C-251.828125 180.63850134 -251.828125 180.63850134 -251.828125 178.41796875 C-252.488125 178.41796875 -253.148125 178.41796875 -253.828125 178.41796875 C-256.03988863 175.58896876 -257.79884874 172.43433337 -259.640625 169.35546875 C-260.18380371 168.44748535 -260.72698242 167.53950195 -261.28662109 166.60400391 C-272.30627287 147.67178258 -276.56999308 124.43265704 -271.265625 102.91796875 C-268.07373621 91.93742175 -263.02870152 80.59690786 -254.828125 72.41796875 C-254.168125 72.41796875 -253.508125 72.41796875 -252.828125 72.41796875 C-252.58707031 71.84304688 -252.34601563 71.268125 -252.09765625 70.67578125 C-250.58288607 67.98182074 -248.82846078 66.33759332 -246.515625 64.29296875 C-245.75636719 63.60976563 -244.99710938 62.9265625 -244.21484375 62.22265625 C-241.81633197 60.4090516 -239.65960932 59.39019522 -236.828125 58.41796875 C-236.828125 57.75796875 -236.828125 57.09796875 -236.828125 56.41796875 C-216.69762077 46.15340471 -195.37442017 39.77106569 -172.828125 46.41796875 C-172.828125 45.75796875 -172.828125 45.09796875 -172.828125 44.41796875 C-170.828125 45.41796875 -170.828125 45.41796875 -167.828125 47.41796875 C-166.49885734 48.00353865 -165.15453185 48.55552964 -163.80078125 49.08203125 C-149.93537441 54.60291185 -137.59605255 60.65469258 -127.828125 72.41796875 C-127.498125 73.40796875 -127.168125 74.39796875 -126.828125 75.41796875 C-130.33599359 75.41796875 -131.30524645 74.67033193 -134.203125 72.79296875 C-149.35092746 63.50812868 -167.06490613 57.00082984 -184.828125 55.41796875 C-185.56417969 55.34707031 -186.30023438 55.27617187 -187.05859375 55.203125 C-199.78814462 54.60605413 -214.74884192 58.53121265 -225.56640625 65.07421875 C-227.828125 66.41796875 -227.828125 66.41796875 -229.828125 66.41796875 C-229.828125 67.07796875 -229.828125 67.73796875 -229.828125 68.41796875 C-230.570625 68.66546875 -231.313125 68.91296875 -232.078125 69.16796875 C-235.12687986 70.55376641 -236.53738923 71.99248382 -238.828125 74.41796875 C-240.64770198 75.98449198 -242.48920306 77.52112963 -244.33984375 79.05078125 C-245.95194518 80.36882651 -245.95194518 80.36882651 -246.828125 82.41796875 C-247.488125 82.41796875 -248.148125 82.41796875 -248.828125 82.41796875 C-249.08851563 82.96710938 -249.34890625 83.51625 -249.6171875 84.08203125 C-250.828125 86.41796875 -250.828125 86.41796875 -252.4140625 88.94140625 C-263.1237824 106.01148383 -265.11174576 125.24971533 -260.796875 144.7265625 C-255.90644308 163.36147447 -245.38641302 180.22826103 -231.640625 193.66796875 C-230.7125 194.57546875 -229.784375 195.48296875 -228.828125 196.41796875 C-228.828125 197.07796875 -228.828125 197.73796875 -228.828125 198.41796875 C-228.168125 198.41796875 -227.508125 198.41796875 -226.828125 198.41796875 C-226.828125 199.07796875 -226.828125 199.73796875 -226.828125 200.41796875 C-226.168125 200.41796875 -225.508125 200.41796875 -224.828125 200.41796875 C-224.828125 201.07796875 -224.828125 201.73796875 -224.828125 202.41796875 C-224.126875 202.60359375 -223.425625 202.78921875 -222.703125 202.98046875 C-218.73172449 204.96616901 -216.5207832 207.95730151 -213.828125 211.41796875 C-213.168125 211.08796875 -212.508125 210.75796875 -211.828125 210.41796875 C-211.498125 211.07796875 -211.168125 211.73796875 -210.828125 212.41796875 C-210.48725166 210.87795168 -210.15581547 209.33584469 -209.828125 207.79296875 C-209.5496875 206.50519531 -209.5496875 206.50519531 -209.265625 205.19140625 C-208.0334045 197.38000844 -210.18231221 192.89902874 -213.765625 186.04296875 C-214.25909424 185.07649414 -214.75256348 184.11001953 -215.26098633 183.11425781 C-218.73206434 176.36942982 -222.35777932 169.71587501 -226.18530273 163.16650391 C-228.828125 158.61561871 -228.828125 158.61561871 -228.828125 156.41796875 C-229.488125 156.41796875 -230.148125 156.41796875 -230.828125 156.41796875 C-231.26125 155.18046875 -231.694375 153.94296875 -232.140625 152.66796875 C-233.32852055 149.47585133 -234.66611938 147.07133929 -236.828125 144.41796875 C-237.158125 143.42796875 -237.488125 142.43796875 -237.828125 141.41796875 C-238.67375 140.59296875 -239.519375 139.76796875 -240.390625 138.91796875 C-242.828125 136.41796875 -242.828125 136.41796875 -242.828125 133.41796875 C-243.158125 132.42796875 -243.488125 131.43796875 -243.828125 130.41796875 C-244.488125 130.74796875 -245.148125 131.07796875 -245.828125 131.41796875 C-245.76625 130.67546875 -245.704375 129.93296875 -245.640625 129.16796875 C-245.86175174 125.92477652 -246.90001238 124.93289826 -248.828125 122.41796875 C-248.498125 121.42796875 -248.168125 120.43796875 -247.828125 119.41796875 C-244.79399291 122.29240968 -242.68241827 124.70938222 -240.828125 128.41796875 C-239.838125 128.74796875 -238.848125 129.07796875 -237.828125 129.41796875 C-237.498125 130.07796875 -237.168125 130.73796875 -236.828125 131.41796875 C-235.838125 132.07796875 -234.848125 132.73796875 -233.828125 133.41796875 C-230.828125 137.86241319 -230.828125 137.86241319 -230.828125 140.41796875 C-230.168125 140.41796875 -229.508125 140.41796875 -228.828125 140.41796875 C-228.828125 141.07796875 -228.828125 141.73796875 -228.828125 142.41796875 C-228.168125 142.41796875 -227.508125 142.41796875 -226.828125 142.41796875 C-225.24278798 144.13129629 -223.73271285 145.91485922 -222.265625 147.73046875 C-221.45996094 148.71660156 -220.65429688 149.70273437 -219.82421875 150.71875 C-217.828125 153.41796875 -217.828125 153.41796875 -216.828125 156.41796875 C-216.168125 156.41796875 -215.508125 156.41796875 -214.828125 156.41796875 C-214.828125 157.07796875 -214.828125 157.73796875 -214.828125 158.41796875 C-214.168125 158.41796875 -213.508125 158.41796875 -212.828125 158.41796875 C-212.828125 159.07796875 -212.828125 159.73796875 -212.828125 160.41796875 C-212.168125 160.41796875 -211.508125 160.41796875 -210.828125 160.41796875 C-208.50793203 163.60823408 -206.48169422 166.83523544 -204.828125 170.41796875 C-204.168125 170.41796875 -203.508125 170.41796875 -202.828125 170.41796875 C-202.828125 171.07796875 -202.828125 171.73796875 -202.828125 172.41796875 C-202.168125 172.41796875 -201.508125 172.41796875 -200.828125 172.41796875 C-200.828125 173.07796875 -200.828125 173.73796875 -200.828125 174.41796875 C-200.168125 174.41796875 -199.508125 174.41796875 -198.828125 174.41796875 C-193.828125 179.89415923 -193.828125 179.89415923 -193.828125 182.41796875 C-193.168125 182.41796875 -192.508125 182.41796875 -191.828125 182.41796875 C-191.828125 183.07796875 -191.828125 183.73796875 -191.828125 184.41796875 C-190.838125 184.41796875 -189.848125 184.41796875 -188.828125 184.41796875 C-188.828125 183.75796875 -188.828125 183.09796875 -188.828125 182.41796875 C-182.078125 178.41796875 -182.078125 178.41796875 -179.828125 178.41796875 C-179.828125 177.75796875 -179.828125 177.09796875 -179.828125 176.41796875 C-179.02375 176.14984375 -178.219375 175.88171875 -177.390625 175.60546875 C-176.545 175.21359375 -175.699375 174.82171875 -174.828125 174.41796875 C-174.498125 173.42796875 -174.168125 172.43796875 -173.828125 171.41796875 C-172.178125 171.08796875 -170.528125 170.75796875 -168.828125 170.41796875 C-168.828125 169.75796875 -168.828125 169.09796875 -168.828125 168.41796875 C-167.11328125 166.98046875 -167.11328125 166.98046875 -164.890625 165.41796875 C-161.84179863 163.36980071 -161.84179863 163.36980071 -159.828125 160.41796875 C-158.714375 159.94359375 -157.600625 159.46921875 -156.453125 158.98046875 C-153.30172967 157.62210869 -152.02178904 156.84254479 -149.828125 154.41796875 C-149.168125 154.41796875 -148.508125 154.41796875 -147.828125 154.41796875 C-147.828125 153.75796875 -147.828125 153.09796875 -147.828125 152.41796875 C-148.488125 152.41796875 -149.148125 152.41796875 -149.828125 152.41796875 C-149.828125 151.75796875 -149.828125 151.09796875 -149.828125 150.41796875 C-150.488125 150.41796875 -151.148125 150.41796875 -151.828125 150.41796875 C-151.828125 149.75796875 -151.828125 149.09796875 -151.828125 148.41796875 C-153.478125 147.75796875 -155.128125 147.09796875 -156.828125 146.41796875 C-156.828125 145.75796875 -156.828125 145.09796875 -156.828125 144.41796875 C-157.488125 144.41796875 -158.148125 144.41796875 -158.828125 144.41796875 C-158.828125 143.75796875 -158.828125 143.09796875 -158.828125 142.41796875 C-159.488125 142.41796875 -160.148125 142.41796875 -160.828125 142.41796875 C-160.828125 141.75796875 -160.828125 141.09796875 -160.828125 140.41796875 C-161.488125 140.41796875 -162.148125 140.41796875 -162.828125 140.41796875 C-162.828125 139.75796875 -162.828125 139.09796875 -162.828125 138.41796875 C-163.488125 138.41796875 -164.148125 138.41796875 -164.828125 138.41796875 C-164.828125 137.75796875 -164.828125 137.09796875 -164.828125 136.41796875 C-165.611875 136.33546875 -166.395625 136.25296875 -167.203125 136.16796875 C-169.828125 135.41796875 -169.828125 135.41796875 -171.015625 133.54296875 C-171.28375 132.84171875 -171.551875 132.14046875 -171.828125 131.41796875 C-172.488125 130.42796875 -173.148125 129.43796875 -173.828125 128.41796875 C-171.4850037 128.67358198 -169.14969097 129.01067647 -166.828125 129.41796875 C-166.498125 130.07796875 -166.168125 130.73796875 -165.828125 131.41796875 C-165.209375 131.72734375 -164.590625 132.03671875 -163.953125 132.35546875 C-161.74303119 133.46051565 -160.40402832 134.52688477 -158.828125 136.41796875 C-158.828125 137.07796875 -158.828125 137.73796875 -158.828125 138.41796875 C-157.838125 138.41796875 -156.848125 138.41796875 -155.828125 138.41796875 C-155.828125 139.07796875 -155.828125 139.73796875 -155.828125 140.41796875 C-154.178125 141.07796875 -152.528125 141.73796875 -150.828125 142.41796875 C-150.828125 143.07796875 -150.828125 143.73796875 -150.828125 144.41796875 C-149.9928125 144.57265625 -149.9928125 144.57265625 -149.140625 144.73046875 C-146.38635922 145.54930452 -144.24084843 146.87650656 -141.828125 148.41796875 C-141.498125 147.75796875 -141.168125 147.09796875 -140.828125 146.41796875 C-139.508125 146.41796875 -138.188125 146.41796875 -136.828125 146.41796875 C-136.828125 145.75796875 -136.828125 145.09796875 -136.828125 144.41796875 C-135.838125 144.41796875 -134.848125 144.41796875 -133.828125 144.41796875 C-133.828125 143.75796875 -133.828125 143.09796875 -133.828125 142.41796875 C-132.838125 142.41796875 -131.848125 142.41796875 -130.828125 142.41796875 C-130.828125 141.75796875 -130.828125 141.09796875 -130.828125 140.41796875 C-128.96484375 139.015625 -128.96484375 139.015625 -126.515625 137.48046875 C-123.60986077 135.6509135 -121.21676768 133.87352019 -118.828125 131.41796875 C-117.838125 130.75796875 -116.848125 130.09796875 -115.828125 129.41796875 C-116.158125 128.42796875 -116.488125 127.43796875 -116.828125 126.41796875 C-114.33747612 125.7308932 -112.44926208 125.41796875 -109.828125 125.41796875 C-108.838125 125.08796875 -107.848125 124.75796875 -106.828125 124.41796875 C-106.828125 123.75796875 -106.828125 123.09796875 -106.828125 122.41796875 C-105.838125 122.41796875 -104.848125 122.41796875 -103.828125 122.41796875 C-103.828125 121.75796875 -103.828125 121.09796875 -103.828125 120.41796875 C-102.18478996 119.38007294 -100.51568633 118.38228951 -98.828125 117.41796875 C-98.168125 116.75796875 -97.508125 116.09796875 -96.828125 115.41796875 C-95.838125 115.41796875 -94.848125 115.41796875 -93.828125 115.41796875 C-93.828125 116.07796875 -93.828125 116.73796875 -93.828125 117.41796875 C-94.488125 118.07796875 -95.148125 118.73796875 -95.828125 119.41796875 C-96.47580293 121.98858186 -96.47580293 121.98858186 -96.828125 124.41796875 C-97.488125 123.75796875 -98.148125 123.09796875 -98.828125 122.41796875 C-100.0006381 123.36914009 -101.16599515 124.32913884 -102.328125 125.29296875 C-102.9778125 125.82664062 -103.6275 126.3603125 -104.296875 126.91015625 C-104.8021875 127.40773438 -105.3075 127.9053125 -105.828125 128.41796875 C-105.828125 129.07796875 -105.828125 129.73796875 -105.828125 130.41796875 C-106.488125 131.07796875 -107.148125 131.73796875 -107.828125 132.41796875 C-108.818125 132.41796875 -109.808125 132.41796875 -110.828125 132.41796875 C-110.828125 133.07796875 -110.828125 133.73796875 -110.828125 134.41796875 C-112.2890625 135.92578125 -112.2890625 135.92578125 -114.203125 137.54296875 C-114.82960938 138.08179688 -115.45609375 138.620625 -116.1015625 139.17578125 C-117.828125 140.41796875 -117.828125 140.41796875 -119.828125 140.41796875 C-119.828125 141.07796875 -119.828125 141.73796875 -119.828125 142.41796875 C-120.488125 142.41796875 -121.148125 142.41796875 -121.828125 142.41796875 C-121.828125 143.07796875 -121.828125 143.73796875 -121.828125 144.41796875 C-122.488125 144.41796875 -123.148125 144.41796875 -123.828125 144.41796875 C-123.828125 145.07796875 -123.828125 145.73796875 -123.828125 146.41796875 C-125.32421875 147.85546875 -125.32421875 147.85546875 -127.265625 149.41796875 C-129.98000738 151.56321919 -129.98000738 151.56321919 -131.828125 154.41796875 C-132.488125 154.41796875 -133.148125 154.41796875 -133.828125 154.41796875 C-133.828125 155.07796875 -133.828125 155.73796875 -133.828125 156.41796875 C-132.838125 156.41796875 -131.848125 156.41796875 -130.828125 156.41796875 C-130.828125 157.07796875 -130.828125 157.73796875 -130.828125 158.41796875 C-129.838125 158.41796875 -128.848125 158.41796875 -127.828125 158.41796875 C-127.828125 159.07796875 -127.828125 159.73796875 -127.828125 160.41796875 C-126.838125 160.41796875 -125.848125 160.41796875 -124.828125 160.41796875 C-124.828125 161.07796875 -124.828125 161.73796875 -124.828125 162.41796875 C-124.23 162.56234375 -123.631875 162.70671875 -123.015625 162.85546875 C-121.26662096 163.30521265 -119.54135477 163.84689216 -117.828125 164.41796875 C-117.498125 165.40796875 -117.168125 166.39796875 -116.828125 167.41796875 C-114.81304142 168.15120671 -114.81304142 168.15120671 -112.828125 168.41796875 C-112.828125 169.07796875 -112.828125 169.73796875 -112.828125 170.41796875 C-112.168125 170.41796875 -111.508125 170.41796875 -110.828125 170.41796875 C-110.828125 171.07796875 -110.828125 171.73796875 -110.828125 172.41796875 C-107.858125 173.40796875 -107.858125 173.40796875 -104.828125 174.41796875 C-104.828125 175.07796875 -104.828125 175.73796875 -104.828125 176.41796875 C-104.168125 176.41796875 -103.508125 176.41796875 -102.828125 176.41796875 C-102.828125 177.07796875 -102.828125 177.73796875 -102.828125 178.41796875 C-101.508125 178.41796875 -100.188125 178.41796875 -98.828125 178.41796875 C-96.578125 180.29296875 -96.578125 180.29296875 -94.828125 182.41796875 C-94.828125 183.07796875 -94.828125 183.73796875 -94.828125 184.41796875 C-94.10882813 184.67449219 -93.38953125 184.93101562 -92.6484375 185.1953125 C-89.66399352 186.4891227 -87.32369063 188.06112481 -84.703125 189.98046875 C-81.99312447 191.96148737 -80.0242763 193.35258498 -76.828125 194.41796875 C-76.828125 193.75796875 -76.828125 193.09796875 -76.828125 192.41796875 C-76.168125 192.41796875 -75.508125 192.41796875 -74.828125 192.41796875 C-74.828125 191.75796875 -74.828125 191.09796875 -74.828125 190.41796875 C-74.168125 190.41796875 -73.508125 190.41796875 -72.828125 190.41796875 C-72.395 189.55171875 -72.395 189.55171875 -71.953125 188.66796875 C-71.581875 187.92546875 -71.210625 187.18296875 -70.828125 186.41796875 C-70.56 185.77859375 -70.291875 185.13921875 -70.015625 184.48046875 C-67.77535214 180.58946851 -65.09170359 177.83916161 -60.828125 176.41796875 C-59.81896467 174.65204988 -59.81896467 174.65204988 -58.828125 172.41796875 C-56.828125 169.16796875 -56.828125 169.16796875 -54.828125 166.41796875 C-54.168125 166.41796875 -53.508125 166.41796875 -52.828125 166.41796875 C-52.828125 165.75796875 -52.828125 165.09796875 -52.828125 164.41796875 C-52.168125 164.41796875 -51.508125 164.41796875 -50.828125 164.41796875 C-50.55742187 163.84046875 -50.28671875 163.26296875 -50.0078125 162.66796875 C-47.26185864 157.43065277 -43.3191449 152.26741438 -38.828125 148.41796875 C-38.168125 148.41796875 -37.508125 148.41796875 -36.828125 148.41796875 C-35.838125 145.44796875 -35.838125 145.44796875 -34.828125 142.41796875 C-34.168125 142.41796875 -33.508125 142.41796875 -32.828125 142.41796875 C-32.828125 141.75796875 -32.828125 141.09796875 -32.828125 140.41796875 C-32.168125 140.41796875 -31.508125 140.41796875 -30.828125 140.41796875 C-30.828125 139.75796875 -30.828125 139.09796875 -30.828125 138.41796875 C-30.168125 138.41796875 -29.508125 138.41796875 -28.828125 138.41796875 C-28.56 137.84046875 -28.291875 137.26296875 -28.015625 136.66796875 C-26.79883311 134.36246832 -25.52478621 132.39740683 -23.828125 130.41796875 C-23.168125 130.41796875 -22.508125 130.41796875 -21.828125 130.41796875 C-21.498125 132.39796875 -21.168125 134.37796875 -20.828125 136.41796875 C-21.818125 136.41796875 -22.808125 136.41796875 -23.828125 136.41796875 C-24.158125 138.39796875 -24.488125 140.37796875 -24.828125 142.41796875 C-25.818125 142.41796875 -26.808125 142.41796875 -27.828125 142.41796875 C-28.08335937 143.25585938 -28.33859375 144.09375 -28.6015625 144.95703125 C-29.94581418 148.75004713 -31.61826693 152.22021666 -33.453125 155.79296875 C-33.77796875 156.43363281 -34.1028125 157.07429687 -34.4375 157.734375 C-35.23069907 159.29744376 -36.02889531 160.85797497 -36.828125 162.41796875 C-37.488125 162.41796875 -38.148125 162.41796875 -38.828125 162.41796875 C-38.828125 163.73796875 -38.828125 165.05796875 -38.828125 166.41796875 C-39.488125 166.41796875 -40.148125 166.41796875 -40.828125 166.41796875 C-41.01375 167.77921875 -41.01375 167.77921875 -41.203125 169.16796875 C-41.74922177 172.00767198 -42.40076303 173.94387466 -43.828125 176.41796875 C-44.488125 176.41796875 -45.148125 176.41796875 -45.828125 176.41796875 C-46.075625 177.24296875 -46.323125 178.06796875 -46.578125 178.91796875 C-48.27581824 183.67150983 -50.58546982 188.02270586 -52.90625 192.49609375 C-54.49869217 195.6096747 -55.86106423 198.51861638 -56.953125 201.85546875 C-57.828125 204.41796875 -57.828125 204.41796875 -59.828125 205.41796875 C-59.498125 208.38796875 -59.168125 211.35796875 -58.828125 214.41796875 C-54.70552237 213.87564709 -54.70552237 213.87564709 -53.203125 210.85546875 C-52.749375 210.05109375 -52.295625 209.24671875 -51.828125 208.41796875 C-51.168125 208.41796875 -50.508125 208.41796875 -49.828125 208.41796875 C-49.4878125 207.61359375 -49.4878125 207.61359375 -49.140625 206.79296875 C-47.828125 204.41796875 -47.828125 204.41796875 -45.265625 201.35546875 C-42.69274701 198.61591187 -42.69274701 198.61591187 -41.828125 195.41796875 C-41.3125 194.94359375 -40.796875 194.46921875 -40.265625 193.98046875 C-38.37675398 192.28120824 -38.37675398 192.28120824 -38.828125 188.41796875 C-37.838125 188.41796875 -36.848125 188.41796875 -35.828125 188.41796875 C-36.158125 187.75796875 -36.488125 187.09796875 -36.828125 186.41796875 C-35.508125 186.41796875 -34.188125 186.41796875 -32.828125 186.41796875 C-32.539375 185.65484375 -32.250625 184.89171875 -31.953125 184.10546875 C-30.828125 181.41796875 -30.828125 181.41796875 -28.828125 178.41796875 C-28.168125 178.41796875 -27.508125 178.41796875 -26.828125 178.41796875 C-26.580625 177.73734375 -26.333125 177.05671875 -26.078125 176.35546875 C-24.23685671 172.02848828 -22.35067331 167.87499757 -18.921875 164.59375 C-15.62944062 161.17232099 -13.68279389 157.04352157 -11.4140625 152.90234375 C-10.89070313 152.0825 -10.36734375 151.26265625 -9.828125 150.41796875 C-9.168125 150.41796875 -8.508125 150.41796875 -7.828125 150.41796875 C-7.50521484 149.46083984 -7.50521484 149.46083984 -7.17578125 148.484375 C-4.90692 143.3218936 -1.73663632 138.6825451 1.27148438 133.92382812 C1.75552734 133.14716797 2.23957031 132.37050781 2.73828125 131.5703125 C3.18115479 130.86898193 3.62402832 130.16765137 4.08032227 129.44506836 C5.17006705 127.42132626 5.65501827 125.6436524 6.171875 123.41796875 C6.8834375 122.27328125 6.8834375 122.27328125 7.609375 121.10546875 C9.43050313 117.97312837 10.28008523 114.91652861 11.171875 111.41796875 C11.831875 111.41796875 12.491875 111.41796875 13.171875 111.41796875 C15.09725208 105.93064408 16.77952216 100.40647823 18.296875 94.79296875 C18.62945312 93.56320312 18.96203125 92.3334375 19.3046875 91.06640625 C24.32161335 69.95915967 21.78849343 49.24485899 11.66015625 30.24609375 C10.171875 27.41796875 10.171875 27.41796875 9.171875 24.41796875 C8.511875 24.41796875 7.851875 24.41796875 7.171875 24.41796875 C5.796875 22.94921875 5.796875 22.94921875 4.171875 20.91796875 C-8.40867821 6.27079489 -26.28013866 -1.71201917 -45.37719727 -3.25683594 C-53.50671168 -3.76543784 -62.01720981 -4.18566965 -69.828125 -1.58203125 C-70.54484375 -1.42605469 -71.2615625 -1.27007812 -72 -1.109375 C-84.73357638 1.80391293 -95.45634797 8.67830343 -105.53515625 16.73046875 C-107.828125 18.41796875 -107.828125 18.41796875 -109.828125 18.41796875 C-109.828125 19.07796875 -109.828125 19.73796875 -109.828125 20.41796875 C-111.1484375 21.64453125 -111.1484375 21.64453125 -112.953125 23.04296875 C-116.48965744 25.94106024 -118.99484636 29.1166789 -121.56640625 32.87890625 C-121.98277344 33.38679688 -122.39914062 33.8946875 -122.828125 34.41796875 C-123.488125 34.41796875 -124.148125 34.41796875 -124.828125 34.41796875 C-125.1684375 35.37703125 -125.1684375 35.37703125 -125.515625 36.35546875 C-126.60647755 38.90079137 -127.78876327 41.05489669 -129.203125 43.41796875 C-132.43216997 49.08077462 -134.09829984 55.16547223 -135.828125 61.41796875 C-136.158125 61.41796875 -136.488125 61.41796875 -136.828125 61.41796875 C-137.99039759 48.16806123 -131.78540418 34.11525931 -123.60009766 23.8828125 C-113.7718103 12.23339057 -101.50863185 -0.73746399 -86.828125 -5.58203125 C-86.498125 -6.24203125 -86.168125 -6.90203125 -85.828125 -7.58203125 C-59.19780401 -20.81681854 -23.98214082 -16.46046938 0 0 Z " fill="#0CAFED" transform="translate(463.828125,249.58203125)"/>
<path d="M0 0 C0.495 0.99 0.495 0.99 1 2 C0.21654285 3.17219543 -0.57702836 4.33763668 -1.375 5.5 C-2.03628906 6.47453125 -2.03628906 6.47453125 -2.7109375 7.46875 C-3.13632812 7.9740625 -3.56171875 8.479375 -4 9 C-4.66 9 -5.32 9 -6 9 C-6 9.66 -6 10.32 -6 11 C-6.66 11 -7.32 11 -8 11 C-8 11.66 -8 12.32 -8 13 C-8.66 13 -9.32 13 -10 13 C-10.309375 13.61875 -10.61875 14.2375 -10.9375 14.875 C-11.625 16.25 -12.3125 17.625 -13 19 C-13.66 19 -14.32 19 -15 19 C-15.22816406 19.54785156 -15.45632813 20.09570312 -15.69140625 20.66015625 C-17.38403014 23.68666881 -19.55804074 25.91827809 -21.9375 28.4375 C-24.51501847 31.1668605 -26.77265901 33.61724807 -28.69140625 36.84765625 C-29.12324219 37.55792969 -29.55507813 38.26820313 -30 39 C-30.66 39 -31.32 39 -32 39 C-32 39.66 -32 40.32 -32 41 C-32.66 41 -33.32 41 -34 41 C-35.11640849 44.35006925 -34.86403836 46.47272542 -33.95532227 49.85913086 C-33.70053101 50.82724197 -33.44573975 51.79535309 -33.18322754 52.7928009 C-32.89717651 53.83957504 -32.61112549 54.88634918 -32.31640625 55.96484375 C-32.02544067 57.05854782 -31.7344751 58.15225189 -31.43469238 59.27909851 C-30.48632669 62.83438544 -29.52440975 66.38585617 -28.5625 69.9375 C-27.91444862 72.36029124 -27.26723195 74.78330591 -26.62084961 77.20654297 C-23.88503761 87.43800134 -21.11612792 97.65969353 -18.25 107.85546875 C-18.05582993 108.5482341 -17.86165985 109.24099945 -17.66160583 109.95475769 C-16.80345483 113.01158205 -15.93454141 116.06456346 -15.04711914 119.11303711 C-14.75442139 120.14050049 -14.46172363 121.16796387 -14.16015625 122.2265625 C-13.90886963 123.08846191 -13.65758301 123.95036133 -13.39868164 124.83837891 C-13 127 -13 127 -14 130 C-16.75553525 125.39960746 -18.88095035 121.00994422 -20.6875 115.9375 C-23.11148267 109.26419381 -25.72766072 102.68719614 -28.4375 96.125 C-31.36376135 89.01969099 -34.26002356 81.905166 -37.0625 74.75 C-37.36148193 73.99348145 -37.66046387 73.23696289 -37.96850586 72.45751953 C-40 67.23818899 -40 67.23818899 -40 65 C-40.66 65 -41.32 65 -42 65 C-41.96084473 66.08176514 -41.92168945 67.16353027 -41.88134766 68.27807617 C-41.886961 73.81457722 -42.90288518 79.119537 -43.8984375 84.55078125 C-44.09345856 85.64537155 -44.28847961 86.73996185 -44.4894104 87.86772156 C-45.11149082 91.35050667 -45.7430968 94.83148516 -46.375 98.3125 C-46.79229538 100.63986132 -47.20896806 102.96733438 -47.625 105.29492188 C-49.3984468 115.19991968 -51.19851904 125.10006883 -53 135 C-53.33 135 -53.66 135 -54 135 C-54.27444775 122.58886305 -53.82275266 110.26030505 -53.0625 97.875 C-53.0169397 97.13088867 -52.97137939 96.38677734 -52.92443848 95.62011719 C-52.56325864 89.75708141 -52.18820225 83.89497937 -51.80712891 78.03320312 C-51.52934812 73.73218884 -51.27396963 69.43270557 -51.09228516 65.12646484 C-51.02503715 63.57691414 -50.94783975 62.02778573 -50.86474609 60.47900391 C-49.99191628 46.07265286 -49.99191628 46.07265286 -57 34 C-58.44404551 31.93554976 -59.85953962 29.8509146 -61.25 27.75 C-61.91515625 26.77546875 -62.5803125 25.8009375 -63.265625 24.796875 C-64.85110971 22.24010235 -65.98953747 19.82517076 -67 17 C-67.66 17 -68.32 17 -69 17 C-70.6875 14.6875 -70.6875 14.6875 -72 12 C-71.67 11.01 -71.34 10.02 -71 9 C-70.56429688 9.44730469 -70.12859375 9.89460938 -69.6796875 10.35546875 C-66.74649716 13.33310137 -63.83335543 16.20518326 -60.5625 18.8125 C-59.2940625 19.8953125 -59.2940625 19.8953125 -58 21 C-58 21.66 -58 22.32 -58 23 C-57.34 23 -56.68 23 -56 23 C-56 23.66 -56 24.32 -56 25 C-55.46375 25.226875 -54.9275 25.45375 -54.375 25.6875 C-49.62967852 28.3099145 -46.21557058 31.71257256 -43 36 C-41.515 36.495 -41.515 36.495 -40 37 C-40 36.34 -40 35.68 -40 35 C-38.63671875 33.58984375 -38.63671875 33.58984375 -36.6875 31.9375 C-35.96304688 31.32003906 -35.23859375 30.70257813 -34.4921875 30.06640625 C-30.89242365 27.08164908 -27.26169024 24.13600057 -23.61328125 21.2109375 C-20.916507 19.00070055 -20.916507 19.00070055 -18.35546875 16.2890625 C-16 14 -16 14 -13 13 C-13 12.34 -13 11.68 -13 11 C-12.34 11 -11.68 11 -11 11 C-11 10.34 -11 9.68 -11 9 C-10.21625 8.7525 -9.4325 8.505 -8.625 8.25 C-5.55451513 6.78786435 -5.3550799 5.98117578 -4 3 C-1.875 1.25 -1.875 1.25 0 0 Z " fill="#16ADED" transform="translate(363,451)"/>
<path d="M0 0 C1.21429688 -0.00515625 2.42859375 -0.0103125 3.6796875 -0.015625 C6.94944211 0.23646492 9.19019555 0.84397201 12.125 2.25 C12.125 2.91 12.125 3.57 12.125 4.25 C12.785 4.25 13.445 4.25 14.125 4.25 C17.125 10 17.125 10 17.125 12.25 C17.785 12.58 18.445 12.91 19.125 13.25 C19.51537349 19.23572683 19.01767712 24.89547001 16.125 30.25 C11.41743528 34.88415241 6.40820028 36.60910024 -0.125 36.8125 C-5.86984016 36.49579727 -9.46190717 35.04258325 -14.0625 31.625 C-17.53278969 27.07772385 -18.94294913 22.25449928 -18.75 16.5625 C-16.13801847 6.6742842 -10.53925425 -0.04456344 0 0 Z " fill="#07B0F0" transform="translate(274.875,385.75)"/>
<path d="M0 0 C0 0.66 0 1.32 0 2 C0.66 2 1.32 2 2 2 C4.92288739 7.8959531 6.81509819 12.98023698 5.8125 19.6015625 C4.12475779 24.58364769 0.51683886 28.28523066 -3.77734375 31.2109375 C-6.97513533 32.34618161 -9.87095603 32.18757489 -13.25 32.125 C-15.14492188 32.09792969 -15.14492188 32.09792969 -17.078125 32.0703125 C-18.52445312 32.03550781 -18.52445312 32.03550781 -20 32 C-20 31.34 -20 30.68 -20 30 C-21.32 30 -22.64 30 -24 30 C-24 29.34 -24 28.68 -24 28 C-24.928125 27.9071875 -24.928125 27.9071875 -25.875 27.8125 C-28 27 -28 27 -29.109375 24.875 C-31.21553971 18.07615253 -31.3009562 9.70856765 -28.125 3.25 C-21.39000538 -7.05058001 -9.48485807 -5.62065664 0 0 Z " fill="#0CB0ED" transform="translate(395,398)"/>
<path d="M0 0 C3.30176263 2.80649824 3.92839296 4.30779863 4.375 8.625 C4 12 4 12 2 15 C1.34 15 0.68 15 0 15 C-0.33 15.99 -0.66 16.98 -1 18 C-9.02147338 17.8114611 -9.02147338 17.8114611 -12.5625 14.875 C-14.38719803 11.22560394 -14.57650862 9.03556032 -14 5 C-10.14435279 -0.91199239 -6.79116575 -1.93266377 0 0 Z " fill="#14AEED" transform="translate(326,465)"/>
<path d="M0 0 C2.3431213 0.25561323 4.67843403 0.59270772 7 1 C7.33 1.66 7.66 2.32 8 3 C8.61875 3.309375 9.2375 3.61875 9.875 3.9375 C12.08509381 5.0425469 13.42409668 6.10891602 15 8 C15 8.66 15 9.32 15 10 C15.99 10 16.98 10 18 10 C17.67 10.66 17.34 11.32 17 12 C16.01 11.67 15.02 11.34 14 11 C14.33 11.99 14.66 12.98 15 14 C14.34 14 13.68 14 13 14 C13 13.34 13 12.68 13 12 C12.34 12 11.68 12 11 12 C11 11.34 11 10.68 11 10 C10.34 10 9.68 10 9 10 C9 9.34 9 8.68 9 8 C8.21625 7.9175 7.4325 7.835 6.625 7.75 C4 7 4 7 2.8125 5.125 C2.544375 4.42375 2.27625 3.7225 2 3 C1.34 2.01 0.68 1.02 0 0 Z " fill="#27B4E3" transform="translate(290,378)"/>
<path d="M0 0 C2.3515625 0.56640625 2.3515625 0.56640625 5 2 C6.3984375 5.15234375 6.3984375 5.15234375 7.375 8.9375 C7.71273438 10.18402344 8.05046875 11.43054688 8.3984375 12.71484375 C9 16 9 16 8 19 C4.18390294 13.00327606 2.0905722 6.77211952 0 0 Z " fill="#30ADE9" transform="translate(341,562)"/>
<path d="M0 0 C0.33 0 0.66 0 1 0 C3.00703217 8.27900772 1.42118716 15.03025892 -1 23 C-1.33 23 -1.66 23 -2 23 C-2.27990605 15.10042938 -1.51537186 7.7527507 0 0 Z " fill="#2EBCED" transform="translate(232,610)"/>
<path d="M0 0 C1.32 0.33 2.64 0.66 4 1 C2.02 6.94 0.04 12.88 -2 19 C-2.33 19 -2.66 19 -3 19 C-3.33693273 12.03672362 -2.3030887 6.56654456 0 0 Z " fill="#27ACE6" transform="translate(330,292)"/>
<path d="M0 0 C2.375 -0.125 2.375 -0.125 5 0 C5.66 0.66 6.32 1.32 7 2 C7.66 1.67 8.32 1.34 9 1 C9.33 1.66 9.66 2.32 10 3 C10.66 2.34 11.32 1.68 12 1 C11.67 4.96 11.34 8.92 11 13 C10.67 13 10.34 13 10 13 C10 11.02 10 9.04 10 7 C9.01 6.67 8.02 6.34 7 6 C6.34 5.484375 5.68 4.96875 5 4.4375 C3.00449357 2.70818198 3.00449357 2.70818198 0 3 C0 2.01 0 1.02 0 0 Z " fill="#48BBE7" transform="translate(243,459)"/>
<path d="M0 0 C0.33 0 0.66 0 1 0 C1.33910994 2.04071515 1.67102704 4.08262621 2 6.125 C2.185625 7.26195312 2.37125 8.39890625 2.5625 9.5703125 C2.96956049 12.76137602 3.07809902 15.78817791 3 19 C0.03472242 16.5546615 -0.55582214 14.55397653 -1.1875 10.8125 C-1.34605469 9.91144531 -1.50460937 9.01039063 -1.66796875 8.08203125 C-1.77753906 7.39496094 -1.88710938 6.70789063 -2 6 C-1.67 6 -1.34 6 -1 6 C-0.67 4.02 -0.34 2.04 0 0 Z " fill="#3CC1EE" transform="translate(312,614)"/>
<path d="M0 0 C0.66 0 1.32 0 2 0 C2.33 1.98 2.66 3.96 3 6 C2.01 6 1.02 6 0 6 C-0.33 7.98 -0.66 9.96 -1 12 C-1.99 11.67 -2.98 11.34 -4 11 C-3.67 9.68 -3.34 8.36 -3 7 C-3.99 7.495 -3.99 7.495 -5 8 C-3.63055898 5.05043472 -2.12169591 2.47531189 0 0 Z " fill="#5AC2E1" transform="translate(440,380)"/>
<path d="M0 0 C0.66 0.33 1.32 0.66 2 1 C3.26229508 5.47540984 3.26229508 5.47540984 2 8 C1.34 8 0.68 8 0 8 C-0.66 9.32 -1.32 10.64 -2 12 C-2.99 10.68 -3.98 9.36 -5 8 C-4.67 7.34 -4.34 6.68 -4 6 C-3.01 6 -2.02 6 -1 6 C-0.67 4.02 -0.34 2.04 0 0 Z " fill="#4ABEE0" transform="translate(339,612)"/>
<path d="M0 0 C2.3431213 0.25561323 4.67843403 0.59270772 7 1 C7.33 1.66 7.66 2.32 8 3 C9.32467746 3.6837045 10.65863633 4.34964186 12 5 C12.66 5.66 13.32 6.32 14 7 C13.01 7.495 13.01 7.495 12 8 C11.34 7.67 10.68 7.34 10 7 C10 6.34 10 5.68 10 5 C9.01 5 8.02 5 7 5 C6.67 5.66 6.34 6.32 6 7 C6.66 7.33 7.32 7.66 8 8 C6.125 7.75 6.125 7.75 4 7 C2.875 5.125 2.875 5.125 2 3 C1.34 2.01 0.68 1.02 0 0 Z " fill="#6DC6DE" transform="translate(290,378)"/>
<path d="M0 0 C2.83374881 3.20336822 3.5205537 5.78087253 4 10 C3.01 10 2.02 10 1 10 C1 8.68 1 7.36 1 6 C-0.32 5.67 -1.64 5.34 -3 5 C-2.625 3.0625 -2.625 3.0625 -2 1 C-1.34 0.67 -0.68 0.34 0 0 Z " fill="#4ABEDF" transform="translate(440,614)"/>
<path d="M0 0 C0.33 0.66 0.66 1.32 1 2 C-0.65 4.31 -2.3 6.62 -4 9 C-5.32 8.34 -6.64 7.68 -8 7 C-7.34 7 -6.68 7 -6 7 C-5.7525 6.401875 -5.505 5.80375 -5.25 5.1875 C-3.83629988 2.71352479 -2.34944617 1.56629745 0 0 Z " fill="#51AFE5" transform="translate(363,451)"/>
<path d="M0 0 C0.99 0 1.98 0 3 0 C3 0.66 3 1.32 3 2 C2.34 2.66 1.68 3.32 1 4 C0.35232207 6.57061311 0.35232207 6.57061311 0 9 C-1.32 8.01 -2.64 7.02 -4 6 C-2.84826645 3.53199953 -1.95216435 1.95216435 0 0 Z " fill="#49BFE7" transform="translate(367,365)"/>
<path d="M0 0 C2 3 2 3 1.7578125 5.26171875 C1.54898437 6.06222656 1.34015625 6.86273438 1.125 7.6875 C0.92132813 8.49574219 0.71765625 9.30398438 0.5078125 10.13671875 C0.25644531 11.05904297 0.25644531 11.05904297 0 12 C-0.33 12 -0.66 12 -1 12 C-1.02712066 10.56260487 -1.04645067 9.12506137 -1.0625 7.6875 C-1.07410156 6.88699219 -1.08570313 6.08648437 -1.09765625 5.26171875 C-1 3 -1 3 0 0 Z " fill="#4FAEDD" transform="translate(328,299)"/>
<path d="M0 0 C2.29633824 3.44450737 2.54016485 5.93812283 3 10 C-0.0916909 7.47043472 -0.90931332 4.77545388 -2 1 C-1.34 0.67 -0.68 0.34 0 0 Z " fill="#5FB2E5" transform="translate(347,571)"/>
<path d="M0 0 C1.98 1.65 3.96 3.3 6 5 C5.01 5.495 5.01 5.495 4 6 C3.67 6.66 3.34 7.32 3 8 C0 3.375 0 3.375 0 0 Z " fill="#51B0E0" transform="translate(291,460)"/>
<path d="M0 0 C1.98 0.99 1.98 0.99 4 2 C2.68 2 1.36 2 0 2 C0 1.34 0 0.68 0 0 Z " fill="#76D5EA" transform="translate(341,594)"/>
<path d="M0 0 C0.66 0 1.32 0 2 0 C2 0.66 2 1.32 2 2 C1.34 2 0.68 2 0 2 C0 1.34 0 0.68 0 0 Z " fill="#7CD2E3" transform="translate(345,620)"/>
<path d="M0 0 C0.66 0 1.32 0 2 0 C2 0.66 2 1.32 2 2 C1.34 2 0.68 2 0 2 C0 1.34 0 0.68 0 0 Z " fill="#7ED4E5" transform="translate(433,592)"/>
<path d="M0 0 C0.66 0 1.32 0 2 0 C2 0.66 2 1.32 2 2 C1.34 2 0.68 2 0 2 C0 1.34 0 0.68 0 0 Z " fill="#79D4E4" transform="translate(351,578)"/>
<path d="M0 0 C0.66 0 1.32 0 2 0 C2 0.66 2 1.32 2 2 C1.34 2 0.68 2 0 2 C0 1.34 0 0.68 0 0 Z " fill="#62D4F5" transform="translate(333,466)"/>
<path d="M0 0 C0.66 0 1.32 0 2 0 C2 0.66 2 1.32 2 2 C1.34 2 0.68 2 0 2 C0 1.34 0 0.68 0 0 Z " fill="#66D5F7" transform="translate(231,454)"/>
<path d="M0 0 C0.66 0 1.32 0 2 0 C2 0.66 2 1.32 2 2 C1.34 2 0.68 2 0 2 C0 1.34 0 0.68 0 0 Z " fill="#7FD4E5" transform="translate(295,406)"/>
<path d="M0 0 C0.66 0 1.32 0 2 0 C2 0.66 2 1.32 2 2 C1.34 2 0.68 2 0 2 C0 1.34 0 0.68 0 0 Z " fill="#7FD2E6" transform="translate(241,386)"/>
<path d="M0 0 C0.99 0.495 0.99 0.495 2 1 C1.01 1.495 1.01 1.495 0 2 C0 1.34 0 0.68 0 0 Z " fill="#6BD5F2" transform="translate(303,608)"/>
<path d="M0 0 C0.99 0.495 0.99 0.495 2 1 C1.01 1.495 1.01 1.495 0 2 C0 1.34 0 0.68 0 0 Z " fill="#7FD4E6" transform="translate(369,430)"/>
<path d="M0 0 C0.66 0.66 1.32 1.32 2 2 C1.34 2 0.68 2 0 2 C0 1.34 0 0.68 0 0 Z " fill="#6CD4F6" transform="translate(285,420)"/>
<path d="M0 0 C0.66 0 1.32 0 2 0 C1.67 0.66 1.34 1.32 1 2 C0.67 1.34 0.34 0.68 0 0 Z " fill="#7FD5E6" transform="translate(291,416)"/>
<path d="M0 0 C0.33 0.66 0.66 1.32 1 2 C0.34 1.67 -0.32 1.34 -1 1 C-0.67 0.67 -0.34 0.34 0 0 Z " fill="#67CEF0" transform="translate(364,365)"/>
<path d="M0 0 C0.66 0.66 1.32 1.32 2 2 C1.34 2 0.68 2 0 2 C0 1.34 0 0.68 0 0 Z " fill="#6DD6F6" transform="translate(327,290)"/>
<path d="" fill="#7DD6E6" transform="translate(0,0)"/>
<path d="" fill="#7AD6E7" transform="translate(0,0)"/>
<path d="" fill="#7CD3E6" transform="translate(0,0)"/>
<path d="M0 0 C2 1 2 1 2 1 Z " fill="#6ED6EC" transform="translate(322,483)"/>
<path d="" fill="#68D3EE" transform="translate(0,0)"/>
<path d="M0 0 C2 1 2 1 2 1 Z " fill="#6AD2ED" transform="translate(437,422)"/>
<path d="" fill="#7FD3E6" transform="translate(0,0)"/>
<path d="M0 0 C2 1 2 1 2 1 Z " fill="#7CD0E5" transform="translate(239,394)"/>
<path d="" fill="#7FD3E7" transform="translate(0,0)"/>
<path d="M0 0 C2 1 2 1 2 1 Z " fill="#6DD4F3" transform="translate(335,386)"/>
<path d="M0 0 C2 1 2 1 2 1 Z " fill="#77D1E5" transform="translate(365,384)"/>
<path d="" fill="#79D2E4" transform="translate(0,0)"/>
<path d="" fill="#74C9E6" transform="translate(0,0)"/>
<path d="M0 0 C2 1 2 1 2 1 Z " fill="#79C9E4" transform="translate(359,377)"/>
<path d="" fill="#7EC6E6" transform="translate(0,0)"/>
<path d="" fill="#69CFED" transform="translate(0,0)"/>
<path d="" fill="#67D0EF" transform="translate(0,0)"/>
<path d="" fill="#6FCCF1" transform="translate(0,0)"/>
<path d="" fill="#7BCCE5" transform="translate(0,0)"/>
<path d="M0 0 C2 1 2 1 2 1 Z " fill="#6DD0EE" transform="translate(471,361)"/>
<path d="" fill="#6ED5ED" transform="translate(0,0)"/>
<path d="" fill="#7ACFE4" transform="translate(0,0)"/>
<path d="" fill="#73D0E2" transform="translate(0,0)"/>
<path d="" fill="#7FD4E7" transform="translate(0,0)"/>
<path d="" fill="#6CD0EC" transform="translate(0,0)"/>
<path d="" fill="#6FD6F4" transform="translate(0,0)"/>
<path d="" fill="#68D1F4" transform="translate(0,0)"/>
<path d="" fill="#6ED6F6" transform="translate(0,0)"/>
<path d="" fill="#67D0EF" transform="translate(0,0)"/>
<path d="" fill="#6ED6F6" transform="translate(0,0)"/>
<path d="" fill="#65D3F0" transform="translate(0,0)"/>
<path d="" fill="#67D5F2" transform="translate(0,0)"/>
<path d="" fill="#6ED6EF" transform="translate(0,0)"/>
<path d="" fill="#70CAE6" transform="translate(0,0)"/>
<path d="" fill="#6FCEEE" transform="translate(0,0)"/>
<path d="" fill="#7AD4E7" transform="translate(0,0)"/>
<path d="" fill="#7CD0E7" transform="translate(0,0)"/>
<path d="" fill="#64D4EA" transform="translate(0,0)"/>
<path d="" fill="#64D3F0" transform="translate(0,0)"/>
<path d="" fill="#72D0E6" transform="translate(0,0)"/>
<path d="" fill="#6ED6F7" transform="translate(0,0)"/>
<path d="" fill="#6ACCE2" transform="translate(0,0)"/>
<path d="" fill="#7DD4E7" transform="translate(0,0)"/>
<path d="" fill="#6DD0F7" transform="translate(0,0)"/>
<path d="" fill="#6CD6F6" transform="translate(0,0)"/>
<path d="" fill="#64D1F2" transform="translate(0,0)"/>
<path d="" fill="#74D2E5" transform="translate(0,0)"/>
<path d="" fill="#78CBE1" transform="translate(0,0)"/>
<path d="" fill="#67D5F1" transform="translate(0,0)"/>
<path d="" fill="#7ACEE7" transform="translate(0,0)"/>
<path d="" fill="#6DD6F7" transform="translate(0,0)"/>
<path d="" fill="#6FD5EF" transform="translate(0,0)"/>
<path d="" fill="#77C9E5" transform="translate(0,0)"/>
<path d="" fill="#7FD2E7" transform="translate(0,0)"/>
<path d="" fill="#79D2E7" transform="translate(0,0)"/>
<path d="" fill="#73C4E5" transform="translate(0,0)"/>
<path d="" fill="#6FD0EE" transform="translate(0,0)"/>
<path d="" fill="#74D5E7" transform="translate(0,0)"/>
<path d="" fill="#6DC7E0" transform="translate(0,0)"/>
<path d="" fill="#67C8EC" transform="translate(0,0)"/>
<path d="" fill="#6DD4EA" transform="translate(0,0)"/>
<path d="" fill="#74C5ED" transform="translate(0,0)"/>
<path d="" fill="#7DCEE5" transform="translate(0,0)"/>
<path d="" fill="#6ED0EE" transform="translate(0,0)"/>
<path d="" fill="#73CEE7" transform="translate(0,0)"/>
<path d="" fill="#7BC7E7" transform="translate(0,0)"/>
<path d="" fill="#6ECEED" transform="translate(0,0)"/>
<path d="" fill="#7BCAE6" transform="translate(0,0)"/>
<path d="" fill="#6FCDF0" transform="translate(0,0)"/>
<path d="" fill="#6ECCF0" transform="translate(0,0)"/>
<path d="" fill="#6DC4E5" transform="translate(0,0)"/>
<path d="" fill="#6CC3E9" transform="translate(0,0)"/>
<path d="" fill="#6DD2F2" transform="translate(0,0)"/>
<path d="" fill="#6FD5F2" transform="translate(0,0)"/>
<path d="" fill="#6CD3E5" transform="translate(0,0)"/>
<path d="" fill="#6ED1F4" transform="translate(0,0)"/>
<path d="" fill="#6DD6F7" transform="translate(0,0)"/>
<path d="" fill="#6FD6ED" transform="translate(0,0)"/>
<path d="" fill="#6FD0ED" transform="translate(0,0)"/>
<path d="" fill="#74D2E6" transform="translate(0,0)"/>
<path d="" fill="#6DD5EB" transform="translate(0,0)"/>
<path d="" fill="#6CCEE5" transform="translate(0,0)"/>
<path d="" fill="#6FD6F7" transform="translate(0,0)"/>
<path d="" fill="#6ED6F7" transform="translate(0,0)"/>
<path d="" fill="#68D4E9" transform="translate(0,0)"/>
<path d="" fill="#6FD6ED" transform="translate(0,0)"/>
<path d="" fill="#6ECFEC" transform="translate(0,0)"/>
<path d="" fill="#74CDE5" transform="translate(0,0)"/>
<path d="" fill="#77C5EF" transform="translate(0,0)"/>
<path d="" fill="#6EC7EB" transform="translate(0,0)"/>
<path d="" fill="#7CC6F6" transform="translate(0,0)"/>
<path d="" fill="#69D2E4" transform="translate(0,0)"/>
<path d="" fill="#77C5F3" transform="translate(0,0)"/>
<path d="" fill="#74D3E6" transform="translate(0,0)"/>
<path d="" fill="#73C4EE" transform="translate(0,0)"/>
</svg>
