<?xml version="1.0" encoding="UTF-8"?>
<svg version="1.1" xmlns="http://www.w3.org/2000/svg" width="591" height="498">
<path d="M0 0 C0.86882812 0.71800781 1.73765625 1.43601562 2.6328125 2.17578125 C8.85964765 7.53619133 14.02781265 13.4728402 19 20 C19.60585938 20.79019531 20.21171875 21.58039063 20.8359375 22.39453125 C40.39786539 49.08195776 47.16588418 81.62997734 42.4128418 114.10571289 C37.46750096 144.74357992 21.12852487 168.53816749 -0.625 189.8125 C-1.83274144 191.00514062 -3.03977651 192.19849699 -4.24609375 193.39257812 C-7.15602599 196.26999416 -10.07520269 199.13769836 -13 202 C-12.443694 201.98143951 -11.887388 201.96287903 -11.31422424 201.9437561 C-5.48924233 201.76339726 0.33125897 201.68274256 6.15893555 201.65820312 C8.328934 201.63622682 10.49883574 201.58938417 12.66772461 201.51660156 C30.2955388 200.94992097 30.2955388 200.94992097 34.9006958 204.4407959 C38.24102555 208.18042736 40.23733452 212.34106871 42 217 C39.0854118 219.9145882 35.45523873 220.70936448 31.62109375 221.984375 C30.32705879 222.42259834 30.32705879 222.42259834 29.00688171 222.86967468 C26.1521955 223.83512933 23.29483611 224.79241954 20.4375 225.75 C18.44948633 226.42130313 16.46169584 227.09326757 14.47412109 227.76586914 C10.36073455 229.15721997 6.24643478 230.54581597 2.13134766 231.93212891 C-3.67172849 233.88799448 -9.47162431 235.85308606 -15.26953125 237.82421875 C-16.16234299 238.12771744 -17.05515472 238.43121613 -17.97502136 238.74391174 C-22.3317694 240.22651783 -26.68644438 241.7148937 -31.0378418 243.21313477 C-31.86632126 243.49838516 -32.69480072 243.78363556 -33.54838562 244.07752991 C-35.16121474 244.63299424 -36.77393948 245.18876177 -38.3865509 245.74485779 C-42.92893119 247.30621737 -47.4852391 248.80873598 -52.0625 250.265625 C-63.19063083 253.89245877 -70.73296475 257.54242302 -78 267 C-78.50789063 266.69964844 -79.01578125 266.39929688 -79.5390625 266.08984375 C-80.22742188 265.70957031 -80.91578125 265.32929688 -81.625 264.9375 C-82.29789062 264.55464844 -82.97078125 264.17179687 -83.6640625 263.77734375 C-89.5062256 261.83321255 -96.24006081 265.33871265 -101.78125 267.30859375 C-102.71296021 267.63537613 -103.64467041 267.96215851 -104.60461426 268.29884338 C-107.57138143 269.34047013 -110.53572441 270.38880624 -113.5 271.4375 C-116.46480138 272.48108118 -119.43007722 273.52330584 -122.39538574 274.56544495 C-124.23670035 275.2131472 -126.07762162 275.86196909 -127.91809082 276.5120697 C-129.56242933 277.09258719 -131.2080562 277.66947425 -132.85522461 278.24191284 C-134.68174598 278.8875107 -136.49231583 279.5779521 -138.29882812 280.27758789 C-141.37818451 281.10114316 -143.02646655 281.1485615 -146 280 C-147.40283203 278.23193359 -147.40283203 278.23193359 -148.5078125 275.8984375 C-148.93118896 275.02783691 -149.35456543 274.15723633 -149.79077148 273.26025391 C-150.23106689 272.30812012 -150.6713623 271.35598633 -151.125 270.375 C-151.83668335 268.89459229 -151.83668335 268.89459229 -152.56274414 267.38427734 C-154.05876139 264.26393524 -155.53002699 261.13268125 -157 258 C-158.35933689 255.14620708 -159.72417152 252.29509123 -161.08935547 249.4440918 C-161.99090678 247.55886669 -162.88965455 245.67229841 -163.78564453 243.78442383 C-167.73505777 235.47852136 -171.8478434 227.25840636 -176.02905273 219.06689453 C-176.50415283 218.1282959 -176.97925293 217.18969727 -177.46875 216.22265625 C-177.88576172 215.40547119 -178.30277344 214.58828613 -178.73242188 213.74633789 C-180.34760914 210.24686917 -181.64668848 206.60883072 -183 203 C-170.13 202.67 -157.26 202.34 -144 202 C-148.42830284 197.35613185 -148.42830284 197.35613185 -151.4375 195.125 C-154.16246866 192.86526989 -156.27497136 190.43142746 -158.53515625 187.72265625 C-161.02480735 184.79482656 -163.79042752 182.15080251 -166.57275391 179.50366211 C-170.87442593 175.33354905 -174.50873857 170.9698969 -177.9375 166.0625 C-178.45256104 165.32596191 -178.96762207 164.58942383 -179.49829102 163.83056641 C-198.81587181 135.57932058 -204.63587909 102.07449097 -198.53466797 68.63574219 C-194.46547406 48.57591685 -185.23986232 30.52977561 -172 15 C-171.22140625 14.05898437 -170.4428125 13.11796875 -169.640625 12.1484375 C-127.27818682 -36.99752836 -49.04781549 -41.11575037 0 0 Z M-102.5234375 72.71484375 C-108.55511194 80.14410129 -110.63519946 87.40034259 -110.34375 96.9453125 C-109.34373035 105.83185079 -105.78293955 113.13655521 -99 119 C-91.43082227 124.2515357 -83.24372942 127.11784635 -74 126 C-65.34660383 124.17458399 -58.71173248 120.84473463 -53 114 C-47.69478357 105.52692052 -46.1170371 97.94559603 -47 88 C-49.51955388 78.31888807 -54.32726212 71.67719021 -62.62109375 66.26171875 C-75.63264272 59.36068375 -92.66602699 61.61893808 -102.5234375 72.71484375 Z " fill="#00AEEF" transform="translate(355,113)"/>
<path d="M0 0 C1.62399645 0.16242904 3.24821489 0.32265211 4.87263489 0.48078918 C9.1216373 0.90046051 13.36691732 1.35022598 17.61212158 1.80651855 C21.92246522 2.26416624 26.2357498 2.69208636 30.54882812 3.12304688 C53.58478257 5.44063767 53.58478257 5.44063767 65.01953125 6.89453125 C65.01953125 7.55453125 65.01953125 8.21453125 65.01953125 8.89453125 C63.99287605 9.40619339 63.99287605 9.40619339 62.94548035 9.92819214 C56.4016626 13.189959 49.85888396 16.45379773 43.31717968 19.71980095 C39.95638005 21.39762388 36.59522429 23.07472392 33.2331543 24.75 C15.04243777 33.79840499 15.04243777 33.79840499 -2.9921875 43.15234375 C-3.63965596 43.48479756 -4.28712442 43.81725138 -4.95421314 44.15977955 C-8.89188036 46.19800713 -12.68614768 48.31883503 -16.41087341 50.72612 C-32.80441836 60.77483252 -48.76640039 60.36625781 -67.30821562 60.00986457 C-71.56534942 59.94008111 -75.82261317 59.93456009 -80.08023071 59.92158508 C-88.10556575 59.88768825 -96.12920976 59.79783234 -104.15380728 59.6867407 C-113.30505122 59.56286095 -122.45638525 59.5030786 -131.60826182 59.44809091 C-150.39994848 59.33377827 -169.19007167 59.14088575 -187.98046875 58.89453125 C-186.98046875 56.89453125 -186.98046875 56.89453125 -184.30810547 55.81982422 C-182.50237061 55.23418701 -182.50237061 55.23418701 -180.66015625 54.63671875 C-179.99120331 54.4170343 -179.32225037 54.19734985 -178.63302612 53.9710083 C-177.15983305 53.48792629 -175.68553859 53.00819387 -174.21032715 52.53131104 C-170.11019771 51.2049486 -166.01880001 49.85201674 -161.92578125 48.50390625 C-161.04809082 48.21560944 -160.17040039 47.92731262 -159.26611328 47.63027954 C-148.729873 44.16523905 -138.2291875 40.59634991 -127.73046875 37.01953125 C-126.24197922 36.5129599 -126.24197922 36.5129599 -124.72341919 35.99615479 C-110.06700402 31.0060364 -95.44474043 25.92408467 -80.84133911 20.78112793 C-67.17933157 15.97240837 -53.46619462 11.33248681 -39.71020508 6.79980469 C-38.64819382 6.44914444 -38.64819382 6.44914444 -37.56472778 6.09140015 C-32.49840435 4.41999589 -32.49840435 4.41999589 -30.02018738 3.62608337 C-27.90577536 2.90357118 -27.90577536 2.90357118 -25.66108704 1.80860901 C-16.99027404 -2.00970677 -9.1227599 -1.01612655 0 0 Z " fill="#01AEED" transform="translate(294.98046875,384.10546875)"/>
<path d="M0 0 C2.37906306 0.16668092 4.75780857 0.27675995 7.14022827 0.3850708 C11.82053839 0.61363802 16.48800504 0.9398808 21.15927124 1.30792236 C23.10002527 1.4523125 25.04227547 1.57775774 26.98544312 1.68487549 C43.0238096 2.57985262 43.0238096 2.57985262 47.71957397 6.09991455 C49.57762166 8.69313464 50.82471419 11.23366605 52.11605835 14.14825439 C53.35853062 16.21543242 54.62259024 18.26975047 55.90512085 20.31231689 C57.1875741 22.46369766 58.46618599 24.61737267 59.74105835 26.77325439 C61.02424199 28.93250718 62.30808182 31.09137016 63.59262085 33.24981689 C64.19235718 34.26076416 64.79209351 35.27171143 65.41000366 36.31329346 C66.92746332 38.83486495 68.48904249 41.31921646 70.07699585 43.79669189 C72.11605835 47.14825439 72.11605835 47.14825439 72.11605835 49.14825439 C13.37605835 49.14825439 -45.36394165 49.14825439 -105.88394165 49.14825439 C-103.28421033 46.54852307 -101.79229776 45.41971284 -98.6222229 43.8550415 C-97.33312012 43.21308083 -97.33312012 43.21308083 -96.01797485 42.55815125 C-95.0868689 42.10190872 -94.15576294 41.6456662 -93.19644165 41.17559814 C-92.22473022 40.69305069 -91.2530188 40.21050323 -90.25186157 39.71333313 C-87.13200727 38.16510699 -84.0082354 36.62499943 -80.88394165 35.08575439 C-76.81984985 33.07723948 -72.75749001 31.06525925 -68.69644165 29.05059814 C-67.69525803 28.55400696 -66.6940744 28.05741577 -65.66255188 27.54577637 C-55.07205762 22.27540018 -44.59393806 16.79502168 -34.19790649 11.15093994 C-31.00070883 9.41871857 -27.78843839 7.7183407 -24.57144165 6.02325439 C-23.01586548 5.16087158 -23.01586548 5.16087158 -21.42886353 4.28106689 C-14.04890501 0.44732221 -8.27203026 -0.59735391 0 0 Z " fill="#00AEEE" transform="translate(392.8839416503906,393.85174560546875)"/>
<path d="M0 0 C3.12885816 2.66119119 4.59718136 5.83731656 6.40625 9.484375 C6.72742798 10.12824158 7.04860596 10.77210815 7.3795166 11.43548584 C8.42576776 13.53736226 9.46305771 15.64351765 10.5 17.75 C11.22231311 19.20655043 11.94497185 20.6629295 12.66796875 22.11914062 C17.29889264 31.46507378 21.85119624 40.84777901 26.3137207 50.27539062 C29.33318364 56.65026445 32.45102198 62.96801457 35.71679688 69.22070312 C37.16007615 72.03678307 38 73.78409168 38 77 C37.44909698 77.18632996 36.89819397 77.37265991 36.33059692 77.56463623 C29.26092014 79.95638481 22.19260289 82.35213034 15.125 84.75 C13.98865112 85.13549011 12.85230225 85.52098022 11.68151855 85.91815186 C-2.49503467 90.73054862 -16.64801129 95.59826832 -30.75 100.625 C-43.08465224 105.02169841 -55.48008414 109.16019859 -68 113 C-66.71974083 109.61877403 -65.2601834 106.54654545 -63.41796875 103.4375 C-62.90516357 102.56963867 -62.3923584 101.70177734 -61.86401367 100.80761719 C-61.31076416 99.88110352 -60.75751465 98.95458984 -60.1875 98 C-59.60782471 97.02450195 -59.02814941 96.04900391 -58.4309082 95.04394531 C-52.98254526 85.90760708 -47.38541485 76.8665513 -41.76269531 67.83691406 C-38.51428698 62.60886631 -35.28840598 57.36695236 -32.0625 52.125 C-31.39033447 51.03300293 -30.71816895 49.94100586 -30.02563477 48.81591797 C-24.95546727 40.5711779 -19.9221855 32.3044245 -14.89819336 24.03149414 C-10.00089912 15.97754884 -5.02378328 7.97554534 0 0 Z " fill="#01AEED" transform="translate(161,322)"/>
<path d="M0 0 C13.00394568 -3.95870332 27.31802161 -5.91047594 40 0 C57.83998534 11.355674 72.48872801 29.79711682 86.33560181 45.54107666 C86.82487341 46.09494238 87.31414501 46.6488081 87.81824303 47.21945763 C89.13102307 48.71071742 90.4349081 50.20979454 91.73809814 51.70944214 C93.82991924 53.82776448 95.38931108 54.72202617 98 56 C98.33 56.99 98.66 57.98 99 59 C97.98389648 59.29716919 97.98389648 59.29716919 96.94726562 59.6003418 C89.65593874 61.78551547 82.46576172 64.19573549 75.28125 66.70703125 C74.32831055 67.03863251 73.37537109 67.37023376 72.39355469 67.71188354 C68.41396136 69.09676513 64.43467445 70.48208913 60.46191406 71.88647461 C57.53044514 72.92112465 54.59399022 73.94034785 51.65625 74.95703125 C50.76039185 75.27775101 49.86453369 75.59847076 48.94152832 75.9289093 C40.76037633 78.73352901 40.76037633 78.73352901 37 77 C35.59716797 75.23193359 35.59716797 75.23193359 34.4921875 72.8984375 C34.06881104 72.02783691 33.64543457 71.15723633 33.20922852 70.26025391 C32.76893311 69.30812012 32.3286377 68.35598633 31.875 67.375 C31.40054443 66.38806152 30.92608887 65.40112305 30.43725586 64.38427734 C28.94123861 61.26393524 27.46997301 58.13268125 26 55 C24.64066311 52.14620708 23.27582848 49.29509123 21.91064453 46.4440918 C21.00909322 44.55886669 20.11034545 42.67229841 19.21435547 40.78442383 C15.26494223 32.47852136 11.1521566 24.25840636 6.97094727 16.06689453 C4.3015165 10.79321836 1.9505225 5.58139377 0 0 Z " fill="#02AFEC" transform="translate(172,316)"/>
<path d="M0 0 C1.32763672 1.6862793 1.32763672 1.6862793 2.6796875 4.07421875 C3.19055908 4.96012695 3.70143066 5.84603516 4.2277832 6.75878906 C4.77136475 7.72526367 5.31494629 8.69173828 5.875 9.6875 C7.03033146 11.69789236 8.18794864 13.70697261 9.34765625 15.71484375 C9.94465332 16.75108887 10.54165039 17.78733398 11.15673828 18.85498047 C14.64725625 24.81059006 18.34255651 30.64054658 22.03662109 36.47143555 C22.55691895 37.30070557 23.0772168 38.12997559 23.61328125 38.984375 C24.07516846 39.71366211 24.53705566 40.44294922 25.01293945 41.19433594 C26 43 26 43 26 45 C12.09650505 44.39079585 -1.7218485 43.29099124 -15.57421875 41.96875 C-17.6802132 41.77048749 -19.78623698 41.57253636 -21.89228821 41.37487793 C-26.2649265 40.96370931 -30.63731783 40.55004181 -35.00952148 40.13427734 C-40.59829704 39.60285669 -46.18748699 39.07595821 -51.77684307 38.55068207 C-57.14695181 38.04579361 -62.51683946 37.53857193 -67.88671875 37.03125 C-68.89961157 36.93577377 -69.91250439 36.84029755 -70.95609093 36.7419281 C-73.83112168 36.47051932 -76.70598835 36.19743603 -79.58081055 35.92382812 C-80.41986938 35.8448378 -81.25892822 35.76584747 -82.12341309 35.6844635 C-87.09551736 35.20907506 -92.04659641 34.64218788 -97 34 C-97 33.34 -97 32.68 -97 32 C-96.13987305 31.71503662 -95.27974609 31.43007324 -94.39355469 31.13647461 C-75.44521214 24.85309285 -56.52097703 18.50175766 -37.625 12.0625 C-36.69619019 11.74634735 -35.76738037 11.4301947 -34.8104248 11.10446167 C-32.11537795 10.18676975 -29.42082066 9.26766095 -26.7265625 8.34765625 C-25.88210571 8.0595256 -25.03764893 7.77139496 -24.16760254 7.47453308 C-20.33699978 6.16263793 -16.5147619 4.83383978 -12.70996094 3.44873047 C-12.05998138 3.21238388 -11.41000183 2.97603729 -10.74032593 2.73252869 C-9.03513155 2.10860921 -7.3326271 1.47735127 -5.63037109 0.84545898 C-3 0 -3 0 0 0 Z " fill="#02AFEC" transform="translate(404,341)"/>
<path d="M0 0 C32.33729212 -4.58467299 32.33729212 -4.58467299 44.27645493 3.57522583 C52.29017097 9.77705322 59.01870833 17.40861835 65.64160156 25.03234863 C68.57279731 28.35966865 71.6213825 31.5759035 74.66015625 34.8046875 C80.55671059 41.10315328 86.31753243 47.50773949 92 54 C87.91627898 54 85.36507113 52.02671279 82 49.9375 C81.32138916 49.52338867 80.64277832 49.10927734 79.94360352 48.68261719 C76.2450451 46.41721189 72.58147019 44.10228645 68.9375 41.75 C63.58619207 38.30930719 58.10998255 35.09597854 52.625 31.875 C40.03699255 24.47715119 27.63423988 16.79519716 15.26953125 9.03125 C14.53524902 8.57065186 13.8009668 8.11005371 13.04443359 7.63549805 C11.68545021 6.78215726 10.32761377 5.92698587 8.97119141 5.06958008 C6.0387629 3.22549585 3.11199028 1.51828043 0 0 Z " fill="#005A6F" transform="translate(174,316)"/>
<path d="M0 0 C0.66 0.33 1.32 0.66 2 1 C1.67 1.33 1.34 1.66 1 2 C85.645 2.495 85.645 2.495 172 3 C172 3.33 172 3.66 172 4 C113.59 4 55.18 4 -5 4 C-2 1 -2 1 0 0 Z " fill="#18BCC5" transform="translate(292,439)"/>
<path d="M0 0 C1.65 0 3.3 0 5 0 C5.66 1.32 6.32 2.64 7 4 C5.68 4 4.36 4 3 4 C3 3.34 3 2.68 3 2 C2.01 1.67 1.02 1.34 0 1 C0 0.67 0 0.34 0 0 Z " fill="#0DA4B9" transform="translate(264,371)"/>
<path d="" fill="#C0F3FF" transform="translate(0,0)"/>
</svg>
